<svg width="213" height="81" viewBox="0 0 213 81" fill="none" xmlns="http://www.w3.org/2000/svg">
<mask id="path-1-inside-1_90_14868" fill="white">
<path d="M0 0H212.625V80.9999H0V0Z"/>
</mask>
<path d="M212.625 79.9874H0V82.0124H212.625V79.9874Z" fill="#E6E9F5" mask="url(#path-1-inside-1_90_14868)"/>
<path fill-rule="evenodd" clip-rule="evenodd" d="M107.939 31.7525C106.996 30.9566 105.616 30.9566 104.673 31.7525L103.814 32.4773C103.414 32.8156 102.918 33.0211 102.395 33.0653L101.275 33.1599C100.046 33.2639 99.0704 34.2393 98.9664 35.4689L98.8717 36.5887C98.8275 37.1113 98.6221 37.6072 98.2838 38.008L97.559 38.8668C96.7631 39.8097 96.7631 41.1892 97.559 42.1321L98.2838 42.9909C98.6221 43.3916 98.8275 43.8876 98.8717 44.4102L98.9664 45.53C99.0704 46.7596 100.046 47.735 101.275 47.8389L102.395 47.9336C102.918 47.9779 103.414 48.1833 103.814 48.5216L104.673 49.2464C105.616 50.0422 106.996 50.0422 107.939 49.2464L108.797 48.5216C109.198 48.1833 109.694 47.9779 110.217 47.9336L111.337 47.8389C112.566 47.735 113.541 46.7596 113.645 45.53L113.74 44.4102C113.784 43.8876 113.99 43.3916 114.328 42.9909L115.053 42.1321C115.849 41.1892 115.849 39.8097 115.053 38.8668L114.328 38.008C113.99 37.6072 113.784 37.1113 113.74 36.5887L113.645 35.4689C113.541 34.2393 112.566 33.2639 111.337 33.1599L110.217 33.0653C109.694 33.0211 109.198 32.8156 108.797 32.4773L107.939 31.7525ZM110.909 38.7737C111.354 38.3289 111.354 37.6076 110.909 37.1628C110.464 36.718 109.743 36.718 109.298 37.1628L105.041 41.4199L103.315 39.6941C102.87 39.2492 102.149 39.2492 101.704 39.6941C101.259 40.1389 101.259 40.8601 101.704 41.3049L104.235 43.8361C104.68 44.281 105.401 44.281 105.846 43.8361L110.909 38.7737Z" fill="#122856"/>
</svg>
