<svg width="153" height="152" viewBox="0 0 153 152" fill="none" xmlns="http://www.w3.org/2000/svg">
<path d="M76.4999 151.706C118.412 151.706 152.389 138.378 152.389 121.936C152.389 105.494 118.412 92.165 76.4999 92.165C34.5875 92.165 0.61084 105.494 0.61084 121.936C0.61084 138.378 34.5875 151.706 76.4999 151.706Z" fill="#E8F0FF"/>
<path d="M49.6364 49.8555C50.2181 46.209 53.7578 43.2428 57.54 43.2305L52.6601 55.8639C50.4791 54.8115 49.2129 52.5134 49.6364 49.8555Z" fill="#2972F5"/>
<path d="M52.6579 56.3264C52.588 56.3264 52.5201 56.312 52.4564 56.2812C50.0226 55.1054 48.7358 52.5545 49.1778 49.7836C49.7924 45.9294 53.5417 42.7824 57.5357 42.77C57.5357 42.77 57.5357 42.77 57.5377 42.77C57.6899 42.77 57.8317 42.844 57.918 42.9694C58.0044 43.0948 58.0229 43.2551 57.9694 43.399L53.0895 56.0325C53.0422 56.1538 52.9477 56.2483 52.8285 56.2956C52.773 56.3161 52.7154 56.3264 52.6579 56.3264ZM56.8512 43.73C53.5582 44.0712 50.6043 46.7229 50.0946 49.9275C49.7472 52.1105 50.6516 54.129 52.4173 55.2061L56.8512 43.73Z" fill="#E8F0FF"/>
<path d="M122.292 46.3776L125.227 38.7803H59.2581L58.3516 41.1298C61.3835 41.2757 63.7885 42.8914 64.9335 45.2553C65.3117 45.1587 65.6981 45.1073 66.0743 45.1073C67.1432 45.1073 68.0106 45.5184 68.5081 46.2563C69.0096 47.0046 69.0672 48.0323 68.6622 49.0663C67.875 51.0951 65.6015 52.6841 63.4884 52.6841C62.4195 52.6841 61.5562 52.2791 61.0608 51.535C60.5531 50.7888 60.4976 49.7631 60.9005 48.7251C61.2766 47.7651 61.9817 46.9059 62.845 46.2646C61.9097 44.4392 59.9734 43.2326 57.5396 43.2326L52.6597 55.864L51.8457 57.9689L50.7995 60.6863C53.8252 60.8261 56.2282 62.4294 57.3855 64.7789C57.7472 64.6947 58.1152 64.6474 58.4729 64.6474C59.5417 64.6474 60.4051 65.0523 60.9046 65.7964C61.4082 66.5447 61.4637 67.5683 61.0629 68.6064C60.2735 70.6352 58.0021 72.2221 55.889 72.2221C54.8201 72.2221 53.9527 71.8172 53.4573 71.0772C52.9537 70.329 52.8941 69.3012 53.299 68.2631C53.6772 67.2888 54.4008 66.4152 55.2847 65.7697C54.8119 64.8714 54.0945 64.1253 53.1942 63.6073C52.3452 63.1201 51.338 62.8282 50.2116 62.7933C50.1499 62.7912 50.0882 62.7912 50.0245 62.7912H49.9834L45.1056 75.4144L44.2916 77.5193L43.2412 80.2429C46.2731 80.3765 48.6843 81.9737 49.8436 84.3273C50.2116 84.2368 50.5836 84.1875 50.9536 84.1875C52.0225 84.1875 52.8838 84.5966 53.3812 85.3366C53.8849 86.0848 53.9465 87.1085 53.5416 88.1465C52.7522 90.1753 50.4788 91.7643 48.3636 91.7643C47.2947 91.7643 46.4335 91.3552 45.936 90.6152C45.4324 89.867 45.3728 88.8392 45.7777 87.8053C46.1539 86.8371 46.8672 85.9697 47.7429 85.3283C46.7973 83.5318 44.8774 82.3498 42.419 82.3519L37.3089 95.5835L36.7353 97.0676V97.0697L35.6809 99.7974C38.7066 99.9248 41.1178 101.508 42.2874 103.843C42.6307 103.765 42.9781 103.724 43.3193 103.724C44.3882 103.724 45.2515 104.133 45.751 104.873C46.2546 105.621 46.3101 106.644 45.9052 107.687C45.1179 109.713 42.8445 111.302 40.7334 111.302C39.6645 111.302 38.8012 110.893 38.3017 110.153C37.7981 109.405 37.7426 108.381 38.1434 107.339C38.5319 106.351 39.2719 105.465 40.1722 104.817C39.2164 103.06 37.313 101.904 34.8648 101.908L29.9685 114.581L29.1812 116.618L24.8789 127.753H90.8478L98.5521 107.81H57.5478L81.4663 46.3797H122.292V46.3776ZM78.0232 121.488H45.27L46.0861 119.375H78.8414L78.0232 121.488ZM81.4786 112.55L80.6585 114.663H47.9073L48.7213 112.55H81.4786Z" fill="#E8F0FF" stroke="#E8F0FF" stroke-width="4.5" stroke-miterlimit="10" stroke-linecap="round" stroke-linejoin="round"/>
<path d="M64.3888 49.8554C65.0609 49.8554 65.6591 49.2778 65.6673 48.6385C65.6776 47.9725 65.6057 47.3291 65.4577 46.7186C65.581 46.7022 65.7023 46.6919 65.8215 46.6919C66.3827 46.6919 66.8246 46.8892 67.0672 47.2448C67.32 47.6231 67.3385 48.1452 67.1124 48.7207C66.6108 50.0075 65.0671 51.0969 63.7413 51.0969C63.1822 51.0969 62.7402 50.8996 62.4977 50.5399C62.2428 50.1617 62.2284 49.6396 62.4504 49.064C62.6333 48.5933 62.956 48.1513 63.3548 47.7772C63.4227 48.1472 63.4555 48.5316 63.4494 48.9283C63.4432 49.4587 63.8379 49.8554 64.3888 49.8554Z" fill="#E8F0FF"/>
<path d="M63.7413 51.5614C63.0218 51.5614 62.4442 51.2921 62.1153 50.8008C61.7762 50.2972 61.7412 49.621 62.0208 48.8995C62.2222 48.3794 62.5758 47.8758 63.0424 47.4421C63.1657 47.327 63.3425 47.2879 63.5028 47.3413C63.6632 47.3948 63.7824 47.5305 63.8132 47.697C63.8872 48.0998 63.9222 48.5171 63.916 48.9385C63.9139 49.068 63.9551 49.1811 64.0352 49.2612C64.1216 49.3476 64.2449 49.3948 64.3908 49.3948C64.8061 49.3948 65.2028 49.0248 65.2069 48.6343C65.2151 48.0156 65.1493 47.4092 65.0096 46.8295C64.9787 46.7021 65.0034 46.5685 65.0774 46.4616C65.1514 46.3547 65.2665 46.2827 65.396 46.2642C65.5399 46.2437 65.6858 46.2334 65.8236 46.2334C66.543 46.2334 67.1206 46.5027 67.4516 46.9898C67.7928 47.5017 67.8257 48.1759 67.5441 48.8933C66.9706 50.3651 65.2665 51.5614 63.7413 51.5614ZM62.991 48.9961C62.9499 49.0742 62.9149 49.1543 62.8841 49.2345C62.7176 49.6641 62.7176 50.0382 62.8841 50.2849C63.0362 50.5131 63.3425 50.6385 63.7433 50.6385C64.878 50.6385 66.2532 49.6662 66.6848 48.5582C66.8534 48.1286 66.8534 47.7566 66.6848 47.5058C66.5595 47.3208 66.3272 47.2036 66.023 47.1687C66.1031 47.6517 66.1401 48.1471 66.1319 48.6466C66.1196 49.5367 65.3076 50.3198 64.3908 50.3198C63.9962 50.3198 63.6364 50.1739 63.3774 49.9108C63.1369 49.6682 63.0013 49.3476 62.991 48.9961Z" fill="#E8F0FF"/>
<path d="M63.4883 53.1464C62.2591 53.1464 61.2601 52.6654 60.6743 51.7938C60.0843 50.9223 60.0103 49.7424 60.4687 48.5584C60.8613 47.5532 61.6075 46.6077 62.5674 45.8944C62.6476 45.8348 62.7442 45.8039 62.8429 45.8039C62.8778 45.8039 62.9128 45.8081 62.9477 45.8163C63.0793 45.8471 63.1923 45.9355 63.254 46.0568C63.5171 46.5707 63.7042 47.1236 63.809 47.7012C63.8378 47.8554 63.7843 48.0157 63.6692 48.1226C63.3033 48.4638 63.032 48.8503 62.8799 49.2388C62.7134 49.6684 62.7134 50.0425 62.8799 50.2892C63.034 50.5173 63.3383 50.6427 63.7391 50.6427C64.8738 50.6427 66.2489 49.6704 66.6806 48.5625C66.8492 48.1329 66.8492 47.7608 66.6806 47.5101C66.5285 47.286 66.2222 47.1606 65.8193 47.1606C65.7227 47.1606 65.622 47.1688 65.5192 47.1832C65.4966 47.1853 65.476 47.1873 65.4555 47.1873C65.2438 47.1873 65.0567 47.0434 65.0053 46.8338C64.8902 46.3569 64.7258 45.8964 64.5161 45.4627C64.4544 45.3373 64.4544 45.1914 64.514 45.066C64.5737 44.9406 64.6847 44.8461 64.8203 44.8132C65.2438 44.7063 65.6652 44.6528 66.0742 44.6528C67.3014 44.6528 68.3024 45.1338 68.8903 46.0054C69.4803 46.8852 69.5522 48.0651 69.0938 49.2429C68.2408 51.4279 65.7782 53.1464 63.4883 53.1464Z" fill="#2972F5"/>
<path d="M66.0763 45.1071C67.1452 45.1071 68.0106 45.5162 68.508 46.2562C69.0096 47.0044 69.0692 48.0301 68.6643 49.0661C67.8749 51.095 65.6015 52.6819 63.4904 52.6819C62.4215 52.6819 61.5582 52.2749 61.0608 51.5328C60.5551 50.7866 60.4996 49.7609 60.9025 48.7229C61.2766 47.7629 61.9816 46.9037 62.845 46.2624C63.0855 46.731 63.2581 47.2387 63.3568 47.7794C62.956 48.1535 62.6353 48.5954 62.4524 49.0661C62.2304 49.6417 62.2448 50.1638 62.4996 50.542C62.7401 50.9017 63.1821 51.0991 63.7412 51.0991C65.067 51.0991 66.6128 50.0096 67.1123 48.7229C67.3364 48.1473 67.3199 47.6252 67.0671 47.247C66.8245 46.8914 66.3846 46.694 65.8214 46.694C65.7022 46.694 65.5809 46.7022 65.4576 46.7207C65.3343 46.2069 65.1575 45.7176 64.9334 45.2551C65.3137 45.1585 65.6981 45.1071 66.0763 45.1071ZM66.0763 44.1821C65.6303 44.1821 65.1719 44.2417 64.7114 44.3569C64.4421 44.4247 64.216 44.6097 64.0989 44.8625C63.9817 45.1154 63.9838 45.4072 64.105 45.658C64.3003 46.063 64.4545 46.4926 64.5614 46.9366C64.6621 47.358 65.0383 47.6457 65.4596 47.6457C65.5028 47.6457 65.546 47.6437 65.5891 47.6375C65.6693 47.6252 65.7495 47.6211 65.8255 47.6211C66.0599 47.6211 66.2428 47.6786 66.3045 47.7691C66.362 47.8554 66.3805 48.0671 66.2551 48.3899C65.8913 49.3251 64.695 50.1761 63.7453 50.1761C63.513 50.1761 63.3321 50.1206 63.2705 50.0302C63.2129 49.9439 63.1903 49.7301 63.3178 49.4032C63.4431 49.0805 63.6775 48.7537 63.992 48.4597C64.2222 48.2439 64.327 47.9274 64.2695 47.617C64.1544 46.9941 63.9529 46.4001 63.6693 45.8451C63.5459 45.6025 63.3219 45.4278 63.0567 45.3661C62.9868 45.3497 62.9169 45.3415 62.847 45.3415C62.6497 45.3415 62.4565 45.4052 62.2961 45.5244C61.2663 46.2891 60.4667 47.3066 60.0433 48.3919C59.5273 49.7219 59.6219 51.058 60.2961 52.057C60.9683 53.0601 62.105 53.613 63.4925 53.613C66.0003 53.613 68.5964 51.8041 69.5296 49.4074C70.0456 48.0877 69.9551 46.7516 69.2809 45.7464C68.5985 44.7351 67.4618 44.1821 66.0763 44.1821Z" fill="#E8F0FF"/>
<path d="M44.489 0.462402L59.2603 38.78L58.3517 41.1295C58.2017 41.1233 58.0475 41.1192 57.8954 41.1192C52.8983 41.1192 48.2137 45.0351 47.4449 49.8553C46.8591 53.5307 48.7153 56.6777 51.8459 57.9666L50.7955 60.682C50.6516 60.6758 50.5077 60.6717 50.3618 60.6717C45.3647 60.6717 40.678 64.5896 39.9113 69.4078C39.3255 73.077 41.1734 76.2199 44.2938 77.5128L43.2413 80.2364C43.1057 80.2323 42.9679 80.2262 42.8282 80.2262C37.8311 80.2262 33.1424 84.1441 32.3736 88.9643C31.7898 92.6232 33.6316 95.7621 36.7396 97.0591L35.6851 99.7889C35.5145 99.7827 35.4097 99.7807 35.3069 99.7807C30.5955 99.7807 26.0137 103.339 24.9613 107.904C24.0589 111.812 25.9191 115.23 29.1875 116.607L24.8852 127.744L9.98242 89.4762L44.489 0.462402Z" fill="#2972F5"/>
<path d="M24.8809 128.213C24.6897 128.213 24.5191 128.096 24.4492 127.919L9.54646 89.651C9.50535 89.5442 9.50535 89.4229 9.54646 89.316L44.0572 0.296027C44.1271 0.117193 44.2874 -0.00202939 44.4888 2.61675e-05C44.68 2.61675e-05 44.8506 0.117193 44.9205 0.296027L59.6917 38.6136C59.7328 38.7205 59.7328 38.8397 59.6917 38.9466L58.7832 41.2961C58.7112 41.4811 58.5283 41.6004 58.3289 41.5921C58.1871 41.586 58.0391 41.5839 57.8952 41.5839C53.1181 41.5839 48.6349 45.3271 47.9011 49.9295C47.3625 53.3006 48.9802 56.2894 52.0204 57.5412C52.2527 57.6378 52.3657 57.9009 52.2753 58.1353L51.2249 60.8506C51.153 61.0377 50.97 61.1549 50.7706 61.1466C50.635 61.1405 50.4972 61.1384 50.3595 61.1384C45.5824 61.1384 41.0992 64.8816 40.3654 69.484C39.8289 72.8469 41.4384 75.8336 44.4683 77.0895C44.7006 77.1861 44.8136 77.4493 44.7232 77.6836L43.6707 80.4072C43.5988 80.5901 43.4179 80.7073 43.2226 80.7032C43.0849 80.6991 42.9575 80.695 42.8259 80.695C38.0467 80.695 33.5636 84.4402 32.8277 89.0446C32.2932 92.3993 33.8966 95.3799 36.9141 96.6399C37.1443 96.7365 37.2574 96.9996 37.167 97.234L36.1125 99.9638C36.0405 100.147 35.8555 100.264 35.6643 100.26C35.502 100.254 35.4012 100.252 35.3026 100.252C30.7577 100.252 26.4123 103.662 25.4071 108.015C24.589 111.563 26.178 114.848 29.362 116.19C29.5922 116.287 29.7032 116.55 29.6128 116.782L25.3105 127.919C25.2447 128.094 25.0721 128.213 24.8809 128.213ZM10.4756 89.4825L24.8788 126.472L28.5953 116.856C25.2571 115.232 23.6208 111.654 24.5088 107.808C25.6065 103.051 30.3487 99.3265 35.3067 99.3265C35.3272 99.3265 35.3498 99.3265 35.3704 99.3265L36.1495 97.308C32.9901 95.7848 31.3374 92.5329 31.9171 88.8966C32.7187 83.8626 37.6151 79.7679 42.828 79.7679C42.8608 79.7679 42.8937 79.7679 42.9266 79.7679L43.7036 77.7596C40.534 76.2406 38.8731 72.9846 39.4548 69.338C40.2565 64.306 45.1507 60.2114 50.3636 60.2114C50.4047 60.2114 50.4438 60.2114 50.4849 60.2114L51.2578 58.2113C48.0737 56.6964 46.4067 53.4383 46.9905 49.7815C47.7921 44.7495 52.6864 40.6569 57.8972 40.6569C57.9445 40.6569 57.9918 40.6569 58.0391 40.6569L58.7647 38.7781L44.4888 1.74314L10.4756 89.4825Z" fill="#E8F0FF"/>
<path d="M49.9833 62.7891L45.1054 75.4122C42.9327 74.3536 41.6768 72.0637 42.1002 69.41C42.6778 65.784 46.1826 62.8302 49.9833 62.7891Z" fill="#2972F5"/>
<path d="M45.1055 75.8748C45.0356 75.8748 44.9677 75.8584 44.902 75.8276C42.4805 74.6477 41.202 72.1008 41.6419 69.3361C42.2503 65.5128 45.9893 62.3698 49.9751 62.3267C49.9771 62.3267 49.9792 62.3267 49.9792 62.3267C50.1313 62.3267 50.2731 62.4007 50.3595 62.526C50.4478 62.6514 50.4663 62.8138 50.4108 62.9557L45.533 75.5788C45.4857 75.7001 45.3912 75.7947 45.2699 75.8419C45.2206 75.8645 45.163 75.8748 45.1055 75.8748ZM49.2926 63.2948C46.0079 63.6587 43.0622 66.3083 42.5586 69.4821C42.2112 71.6589 43.1095 73.6733 44.867 74.7525L49.2926 63.2948Z" fill="#E8F0FF"/>
<path d="M56.8549 69.412C57.525 69.412 58.1253 68.8364 58.1335 68.1951C58.1438 67.5188 58.0677 66.8672 57.9176 66.2485C58.0204 66.2361 58.1212 66.23 58.2198 66.23C58.7789 66.23 59.2209 66.4273 59.4634 66.787C59.7183 67.1653 59.7348 67.6874 59.5107 68.2629C59.0092 69.5497 57.4654 70.635 56.1396 70.635C55.5784 70.635 55.1365 70.4377 54.8939 70.08C54.6411 69.7018 54.6226 69.1797 54.8487 68.6042C55.0399 68.1129 55.3831 67.6504 55.8086 67.266C55.8847 67.6586 55.9238 68.0656 55.9176 68.487C55.9094 69.0132 56.302 69.412 56.8549 69.412Z" fill="#E8F0FF"/>
<path d="M56.1397 71.0975C55.4202 71.0975 54.8426 70.8283 54.5117 70.3411C54.1704 69.8313 54.1376 69.155 54.4192 68.4376C54.6309 67.897 55.0029 67.3729 55.5004 66.9248C55.6237 66.8138 55.7985 66.7768 55.9567 66.8281C56.115 66.8816 56.2322 67.0152 56.2651 67.1776C56.3493 67.6051 56.3884 68.0471 56.3822 68.4952C56.3802 68.6247 56.4213 68.7357 56.5015 68.8159C56.5878 68.9022 56.7111 68.9495 56.8571 68.9495C57.2723 68.9495 57.669 68.5795 57.6731 68.1889C57.6813 67.562 57.6135 66.9474 57.4696 66.3595C57.4388 66.23 57.4635 66.0943 57.5395 65.9854C57.6156 65.8764 57.7327 65.8045 57.8643 65.7901C57.9835 65.7757 58.1048 65.7695 58.222 65.7695C58.9414 65.7695 59.519 66.0409 59.8479 66.5301C60.1871 67.0337 60.222 67.71 59.9425 68.4315C59.369 69.9012 57.6628 71.0975 56.1397 71.0975ZM55.4552 68.4109C55.3853 68.5301 55.3257 68.6514 55.2784 68.7727C55.1098 69.2023 55.1098 69.5744 55.2784 69.8231C55.4305 70.0471 55.7368 70.1725 56.1397 70.1725C57.2743 70.1725 58.6495 69.2023 59.0812 68.0944C59.2477 67.6648 59.2477 67.2906 59.0812 67.044C58.964 66.8692 58.7564 66.7541 58.4871 66.711C58.5693 67.1961 58.6063 67.6956 58.5981 68.1992C58.5858 69.0913 57.7718 69.8724 56.8571 69.8724C56.4624 69.8724 56.1027 69.7265 55.8416 69.4634C55.5888 69.2064 55.4511 68.857 55.4552 68.4808C55.4552 68.4582 55.4552 68.4356 55.4552 68.4109Z" fill="#E8F0FF"/>
<path d="M34.5647 88.9687C35.1444 85.3345 38.6635 82.3806 42.4251 82.3457L37.313 95.5773L37.5514 94.9586C35.3931 93.8979 34.1433 91.6101 34.5647 88.9687Z" fill="#2972F5"/>
<path d="M37.3131 96.0399C37.2576 96.0399 37.2021 96.0296 37.1466 96.0091C36.9082 95.9166 36.789 95.6494 36.8815 95.4109L36.974 95.1725C34.8115 93.9186 33.6933 91.5012 34.1085 88.8948C34.719 85.0632 38.4499 81.9182 42.4212 81.8833C42.4232 81.8833 42.4233 81.8833 42.4253 81.8833C42.5774 81.8833 42.7192 81.9573 42.8056 82.0827C42.8919 82.2081 42.9125 82.3705 42.857 82.5123L37.7448 95.7439C37.6729 95.9289 37.4981 96.0399 37.3131 96.0399ZM35.0212 89.0408C34.6759 91.2073 35.568 93.2156 37.3111 94.2968L41.7346 82.8494C38.4643 83.2112 35.5289 85.8608 35.0212 89.0408Z" fill="#E8F0FF"/>
<path d="M49.3196 88.9685C49.9897 88.9685 50.59 88.3909 50.5982 87.7495C50.6085 87.0691 50.5303 86.4113 50.3782 85.7906C50.4872 85.7762 50.5961 85.77 50.703 85.77C51.2642 85.77 51.7041 85.9673 51.9466 86.3271C52.2015 86.7053 52.2159 87.2274 51.9939 87.803C51.4923 89.0897 49.9486 90.1751 48.6228 90.1751C48.0637 90.1751 47.6217 89.9777 47.3792 89.6201C47.1243 89.2418 47.1058 88.7156 47.3319 88.1442C47.521 87.6611 47.8561 87.2048 48.2733 86.8245C48.3494 87.2171 48.3864 87.6241 48.3802 88.0455C48.372 88.5717 48.7687 88.9685 49.3196 88.9685Z" fill="#E8F0FF"/>
<path d="M48.6226 90.6354C47.9052 90.6354 47.3276 90.3662 46.9967 89.8769C46.6534 89.3692 46.6184 88.6929 46.9 87.9735C47.1077 87.4411 47.4756 86.9231 47.9607 86.4791C48.0841 86.366 48.2588 86.329 48.4171 86.3804C48.5753 86.4318 48.6946 86.5675 48.7254 86.7299C48.8097 87.1554 48.8487 87.5973 48.8426 88.0454C48.8405 88.1749 48.8816 88.2859 48.9618 88.3682C49.0481 88.4565 49.1714 88.5018 49.3194 88.5018C49.7347 88.5018 50.1314 88.1297 50.1355 87.7371C50.1437 87.106 50.0738 86.4873 49.9279 85.8953C49.8971 85.7679 49.9217 85.6322 49.9957 85.5233C50.0697 85.4143 50.1889 85.3424 50.3184 85.3259C50.4459 85.3095 50.5754 85.3013 50.7008 85.3013C51.4202 85.3013 51.9978 85.5705 52.3267 86.0618C52.6679 86.5654 52.7008 87.2417 52.4213 87.9632C51.8519 89.4391 50.1458 90.6354 48.6226 90.6354ZM47.9196 87.9838C47.8579 88.0927 47.8066 88.2017 47.7634 88.3106C47.5948 88.7382 47.5969 89.1123 47.7634 89.361C47.9155 89.5871 48.2218 89.7125 48.6226 89.7125C49.7573 89.7125 51.1324 88.7423 51.5641 87.6343C51.7306 87.2047 51.7306 86.8306 51.5641 86.5839C51.4449 86.4051 51.2291 86.29 50.9474 86.2489C51.0317 86.7422 51.0708 87.2458 51.0626 87.7556C51.0502 88.6477 50.2362 89.4309 49.3215 89.4309C48.9268 89.4309 48.565 89.2849 48.304 89.0218C48.0491 88.7649 47.9134 88.4134 47.9176 88.0372C47.9176 88.0187 47.9175 88.0002 47.9196 87.9838Z" fill="#E8F0FF"/>
<path d="M48.37 92.2226C47.1429 92.2226 46.1439 91.7416 45.556 90.87C44.966 89.9923 44.89 88.8124 45.3504 87.6325C45.7451 86.6191 46.4974 85.6654 47.4718 84.95C47.5519 84.8904 47.6485 84.8596 47.7452 84.8596C47.7801 84.8596 47.815 84.8637 47.8479 84.8719C47.9795 84.9028 48.0905 84.987 48.1542 85.1083C48.4214 85.616 48.6126 86.1628 48.7257 86.7343C48.7565 86.8925 48.703 87.0549 48.5838 87.1639C48.2015 87.5133 47.9178 87.908 47.7616 88.3109C47.593 88.7384 47.593 89.1125 47.7616 89.3613C47.9137 89.5874 48.22 89.7107 48.6208 89.7107C49.7555 89.7107 51.1307 88.7405 51.5623 87.6325C51.7288 87.2029 51.7288 86.8288 51.5623 86.5821C51.4102 86.354 51.1039 86.2286 50.7031 86.2286C50.6168 86.2286 50.5284 86.2348 50.4359 86.245C50.4174 86.2471 50.3968 86.2491 50.3783 86.2491C50.1687 86.2491 49.9816 86.1053 49.9302 85.8976C49.813 85.4208 49.6445 84.9603 49.4307 84.5266C49.369 84.4012 49.367 84.2532 49.4266 84.1258C49.4862 83.9983 49.5993 83.9058 49.7349 83.8709C50.1461 83.7701 50.5572 83.7188 50.9559 83.7188C52.1852 83.7188 53.1842 84.1998 53.77 85.0713C54.3599 85.947 54.436 87.1269 53.9756 88.3068C53.1225 90.5041 50.6599 92.2226 48.37 92.2226Z" fill="#2972F5"/>
<path d="M50.9558 84.1853C52.0247 84.1853 52.888 84.5923 53.3854 85.3343C53.8891 86.0825 53.9487 87.1062 53.5437 88.1443C52.7544 90.1731 50.481 91.76 48.3699 91.76C47.301 91.76 46.4377 91.3509 45.9402 90.6109C45.4366 89.8627 45.377 88.837 45.782 87.801C46.1581 86.8328 46.8735 85.9654 47.7471 85.322C47.9896 85.7845 48.1685 86.2881 48.2733 86.8225C47.856 87.2028 47.521 87.6591 47.3318 88.1422C47.1078 88.7157 47.1242 89.2399 47.3791 89.6181C47.6196 89.9757 48.0616 90.1731 48.6227 90.1731C49.9486 90.1731 51.4923 89.0857 51.9938 87.801C52.2158 87.2254 52.2014 86.7033 51.9466 86.3251C51.7061 85.9654 51.2662 85.768 50.705 85.768C50.5981 85.768 50.4892 85.7742 50.3802 85.7886C50.2528 85.2747 50.0739 84.7855 49.8458 84.323C50.2137 84.2325 50.5878 84.1853 50.9558 84.1853ZM50.9558 83.2603C50.52 83.2603 50.074 83.3158 49.6238 83.4247C49.3504 83.4905 49.1243 83.6775 49.0051 83.9324C48.8858 84.1873 48.89 84.4812 49.0133 84.732C49.2127 85.137 49.3689 85.5666 49.4778 86.0106C49.5806 86.4279 49.9547 86.7136 50.3741 86.7136C50.4131 86.7136 50.4522 86.7115 50.4912 86.7054C50.5632 86.6971 50.6331 86.691 50.6988 86.691C50.9311 86.691 51.112 86.7465 51.1737 86.8369C51.2312 86.9233 51.2538 87.137 51.1264 87.4639C50.7646 88.395 49.5683 89.246 48.6186 89.246C48.3904 89.246 48.2034 89.1885 48.1417 89.098C48.0842 89.0138 48.0616 88.8 48.189 88.4773C48.3185 88.1443 48.5693 87.7989 48.892 87.5029C49.1305 87.285 49.2373 86.9582 49.1757 86.6416C49.0544 86.025 48.8488 85.435 48.5611 84.8882C48.4357 84.6498 48.2116 84.4771 47.9506 84.4175C47.8827 84.4011 47.8128 84.3949 47.743 84.3949C47.5477 84.3949 47.3545 84.4566 47.1941 84.5758C46.1499 85.3446 45.34 86.3703 44.9145 87.4639C44.3986 88.7856 44.4911 90.1217 45.1673 91.1269C45.8436 92.13 46.9803 92.6829 48.3658 92.6829C50.8736 92.6829 53.4697 90.874 54.403 88.4773C54.9189 87.1535 54.8264 85.8194 54.1501 84.8143C53.48 83.8132 52.3433 83.2603 50.9558 83.2603Z" fill="#E8F0FF"/>
<path d="M125.229 38.7803L129.747 44.9408L126.812 52.5381L122.293 46.3776L125.229 38.7803Z" fill="#7FADFF"/>
<path d="M126.812 53.0007C126.666 53.0007 126.526 52.9308 126.44 52.8116L121.922 46.6511C121.829 46.5236 121.806 46.3571 121.864 46.2112L124.799 38.6139C124.861 38.4556 125.003 38.3446 125.169 38.322C125.338 38.2994 125.502 38.3713 125.603 38.507L130.121 44.6675C130.214 44.7949 130.236 44.9614 130.179 45.1074L127.243 52.7047C127.182 52.863 127.04 52.974 126.873 52.9966C126.851 52.9986 126.83 53.0007 126.812 53.0007ZM122.816 46.3078L126.684 51.5824L129.223 45.0087L125.354 39.7341L122.816 46.3078Z" fill="#E8F0FF"/>
<path d="M27.0309 108.523C27.6085 104.897 31.1132 101.947 34.8687 101.904L29.9724 114.576L29.9991 114.506C27.8511 113.44 26.6095 111.16 27.0309 108.523Z" fill="#2972F5"/>
<path d="M29.9727 115.039C29.9172 115.039 29.8617 115.029 29.8062 115.008C29.7013 114.967 29.6212 114.893 29.5698 114.803C27.323 113.571 26.1514 111.107 26.5748 108.451C27.1833 104.632 30.9018 101.487 34.8649 101.442C35.017 101.437 35.1629 101.514 35.2513 101.641C35.3397 101.766 35.3582 101.929 35.3027 102.071L30.4064 114.743C30.3324 114.926 30.1577 115.039 29.9727 115.039ZM27.4875 108.595C27.138 110.788 28.0014 112.753 29.7589 113.843L34.1783 102.408C30.9162 102.778 27.9932 105.425 27.4875 108.595Z" fill="#E8F0FF"/>
<path d="M41.7857 108.523C42.4558 108.523 43.054 107.948 43.0642 107.306C43.0745 106.613 42.9943 105.947 42.8381 105.316C42.9162 105.31 42.9923 105.306 43.0683 105.306C43.6295 105.306 44.0715 105.503 44.314 105.863C44.5669 106.239 44.5854 106.764 44.3592 107.337C43.8577 108.626 42.316 109.713 40.9902 109.713C40.429 109.713 39.9871 109.516 39.7445 109.156C39.4917 108.78 39.4732 108.256 39.6993 107.682C39.9007 107.166 40.2666 106.683 40.7209 106.289C40.8093 106.708 40.8545 107.148 40.8463 107.6C40.8381 108.126 41.2327 108.523 41.7857 108.523Z" fill="#E8F0FF"/>
<path d="M40.9903 110.174C40.2688 110.174 39.6911 109.903 39.3623 109.413C39.021 108.908 38.9881 108.231 39.2698 107.512C39.4897 106.945 39.8864 106.4 40.4168 105.939C40.5401 105.833 40.7128 105.798 40.8669 105.849C41.0231 105.9 41.1383 106.032 41.1732 106.192C41.2698 106.651 41.3171 107.128 41.3089 107.607C41.3068 107.734 41.3479 107.845 41.4281 107.925C41.5144 108.014 41.6378 108.059 41.7858 108.059C42.1989 108.059 42.5956 107.689 42.6018 107.296C42.61 106.657 42.5401 106.028 42.388 105.428C42.3551 105.296 42.3819 105.158 42.46 105.047C42.5381 104.936 42.6614 104.866 42.795 104.854C42.8855 104.846 42.978 104.842 43.0684 104.842C43.7899 104.842 44.3675 105.113 44.6964 105.602C45.0376 106.108 45.0705 106.784 44.7889 107.504C44.2175 108.978 42.5134 110.174 40.9903 110.174ZM40.3818 107.366C40.277 107.526 40.1927 107.689 40.129 107.849C39.9604 108.279 39.9604 108.651 40.1269 108.897C40.279 109.126 40.5853 109.249 40.9882 109.249C41.387 109.249 41.8145 109.13 42.2195 108.926C42.0797 108.965 41.9317 108.986 41.7837 108.986C41.389 108.986 41.0273 108.84 40.7662 108.577C40.5134 108.32 40.3756 107.97 40.3798 107.594C40.3839 107.518 40.3839 107.442 40.3818 107.366ZM43.4117 105.804C43.496 106.297 43.533 106.801 43.5268 107.313C43.5206 107.625 43.4179 107.925 43.2473 108.18C43.5474 107.876 43.7879 107.53 43.9276 107.169C44.0962 106.739 44.0962 106.369 43.9297 106.12C43.8249 105.964 43.646 105.855 43.4117 105.804Z" fill="#E8F0FF"/>
<path d="M40.7376 111.761C39.5083 111.761 38.5094 111.28 37.9215 110.408C37.3315 109.532 37.2575 108.35 37.718 107.168C38.1229 106.13 38.8999 105.16 39.9071 104.437C39.9873 104.379 40.0798 104.35 40.1764 104.35C40.2114 104.35 40.2463 104.354 40.2792 104.363C40.4087 104.391 40.5197 104.476 40.5814 104.593C40.8527 105.09 41.05 105.629 41.1713 106.192C41.2062 106.357 41.1487 106.527 41.0233 106.638C40.6122 106.996 40.2956 107.425 40.1291 107.849C39.9606 108.278 39.9606 108.648 40.1271 108.897C40.2792 109.125 40.5855 109.249 40.9883 109.249C42.123 109.249 43.4961 108.276 43.9257 107.168C44.0943 106.739 44.0943 106.369 43.9278 106.12C43.7757 105.892 43.4694 105.769 43.0665 105.769C43.0049 105.769 42.9411 105.773 42.8774 105.777C42.863 105.779 42.8507 105.779 42.8363 105.779C42.6266 105.779 42.4396 105.637 42.3882 105.429C42.2669 104.948 42.0963 104.484 41.8764 104.048C41.8126 103.921 41.8106 103.773 41.8722 103.643C41.9319 103.516 42.049 103.421 42.1867 103.39C42.5691 103.302 42.9514 103.259 43.3193 103.259C44.5486 103.259 45.5476 103.74 46.1355 104.611C46.7254 105.487 46.7994 106.669 46.339 107.851C45.4859 110.042 43.0254 111.761 40.7376 111.761Z" fill="#2972F5"/>
<path d="M43.3215 103.719C44.3904 103.719 45.2558 104.128 45.7532 104.868C46.2569 105.617 46.3144 106.642 45.9095 107.68C45.1201 109.709 42.8467 111.296 40.7377 111.296C39.6667 111.296 38.8034 110.887 38.306 110.147C37.8024 109.399 37.7448 108.373 38.1497 107.335C38.5362 106.344 39.2762 105.458 40.1786 104.811C40.4252 105.265 40.6102 105.761 40.7212 106.287C40.269 106.682 39.9011 107.165 39.6996 107.68C39.4756 108.254 39.492 108.778 39.7449 109.154C39.9854 109.514 40.4273 109.711 40.9905 109.711C42.3164 109.711 43.858 108.624 44.3596 107.335C44.5836 106.762 44.5672 106.237 44.3144 105.861C44.0739 105.502 43.6319 105.304 43.0687 105.304C42.9926 105.304 42.9166 105.308 42.8385 105.315C42.709 104.797 42.524 104.301 42.2917 103.839C42.635 103.763 42.9803 103.719 43.3215 103.719ZM43.3215 102.794C42.9186 102.794 42.5034 102.842 42.0861 102.938C41.8086 103.002 41.5764 103.189 41.4551 103.446C41.3338 103.703 41.3379 104.001 41.4654 104.256C41.6688 104.661 41.8292 105.095 41.9422 105.543C42.0471 105.958 42.4191 106.242 42.8385 106.242C42.8672 106.242 42.894 106.24 42.9227 106.237C42.9741 106.233 43.0235 106.231 43.0687 106.231C43.303 106.231 43.4839 106.287 43.5456 106.377C43.6031 106.464 43.6257 106.675 43.4983 106.998C43.1345 107.935 41.9381 108.786 40.9905 108.786C40.7562 108.786 40.5753 108.731 40.5136 108.64C40.4561 108.554 40.4335 108.342 40.5609 108.02C40.7007 107.662 40.972 107.296 41.3276 106.988C41.5805 106.768 41.6956 106.427 41.6257 106.098C41.4962 105.491 41.2824 104.912 40.9905 104.373C40.8631 104.141 40.6431 103.972 40.3841 103.913C40.3163 103.896 40.2464 103.89 40.1765 103.89C39.9854 103.89 39.7962 103.95 39.638 104.063C38.5588 104.838 37.7242 105.882 37.2864 107.002C36.7705 108.328 36.8609 109.664 37.5372 110.667C38.2135 111.67 39.3502 112.223 40.7377 112.223C43.2434 112.223 45.8375 110.414 46.7728 108.018C47.2887 106.692 47.1983 105.356 46.522 104.353C45.8437 103.347 44.709 102.794 43.3215 102.794Z" fill="#E8F0FF"/>
<path d="M81.4765 112.552L80.6584 114.665H47.9072L48.7212 112.552H81.4765Z" fill="#2972F5"/>
<path d="M80.6582 115.127H47.9071C47.755 115.127 47.6111 115.051 47.5247 114.926C47.4384 114.801 47.4199 114.64 47.4754 114.498L48.2915 112.385C48.3593 112.207 48.532 112.089 48.7231 112.089H81.4784C81.6305 112.089 81.7744 112.165 81.8607 112.291C81.9471 112.416 81.9656 112.577 81.9101 112.718L81.092 114.831C81.0221 115.01 80.8494 115.127 80.6582 115.127ZM48.5813 114.202H80.3417L80.8021 113.014H49.0397L48.5813 114.202Z" fill="#2972F5"/>
<path d="M78.8414 119.376L78.0232 121.49H45.27L46.0861 119.376H78.8414Z" fill="#2972F5"/>
<path d="M78.0231 121.952H45.2699C45.1177 121.952 44.9739 121.876 44.8875 121.751C44.8012 121.625 44.7827 121.465 44.8382 121.323L45.6542 119.21C45.7221 119.031 45.8947 118.914 46.0859 118.914H78.8412C78.9933 118.914 79.1372 118.99 79.2235 119.116C79.3099 119.241 79.3284 119.401 79.2729 119.543L78.4547 121.656C78.3849 121.835 78.2142 121.952 78.0231 121.952ZM45.9441 121.027H77.7045L78.1649 119.839H46.4025L45.9441 121.027Z" fill="#2972F5"/>
<path d="M98.5559 107.808L103.074 113.968L95.3677 133.909L90.8496 127.751L98.5559 107.808Z" fill="#7FADFF"/>
<path d="M95.3679 134.372C95.2219 134.372 95.0822 134.302 94.9958 134.183L90.4777 128.024C90.3852 127.897 90.3626 127.73 90.4202 127.584L98.1264 107.641C98.1881 107.483 98.3299 107.372 98.4964 107.349C98.665 107.327 98.8294 107.399 98.9302 107.534L103.448 113.695C103.541 113.822 103.563 113.989 103.506 114.135L95.7995 134.078C95.7379 134.236 95.5961 134.347 95.4296 134.37C95.409 134.372 95.3884 134.372 95.3679 134.372ZM91.3719 127.681L95.2404 132.955L102.55 114.036L98.6814 108.761L91.3719 127.681Z" fill="#E8F0FF"/>
<path d="M90.8498 127.75L95.3679 133.909H29.399L24.8809 127.75H90.8498Z" fill="#7FADFF"/>
<path d="M95.3678 134.372H29.3988C29.2508 134.372 29.1131 134.302 29.0268 134.183L24.5087 128.022C24.4059 127.882 24.3894 127.695 24.4696 127.539C24.5477 127.383 24.708 127.286 24.8828 127.286H90.8517C90.9997 127.286 91.1374 127.356 91.2238 127.475L95.7419 133.636C95.8446 133.776 95.8611 133.963 95.7809 134.119C95.7008 134.275 95.5425 134.372 95.3678 134.372ZM29.6332 133.447H94.4551L90.6153 128.211H25.7934L29.6332 133.447Z" fill="#E8F0FF"/>
<path d="M138.502 63.4775L143.02 69.638L125.761 113.968L121.243 107.808L138.502 63.4775Z" fill="#7FADFF"/>
<path d="M125.761 114.431C125.616 114.431 125.476 114.361 125.389 114.242L120.871 108.081C120.777 107.954 120.756 107.787 120.814 107.639L138.072 63.3091C138.134 63.1508 138.276 63.0398 138.442 63.0192C138.609 62.9966 138.775 63.0686 138.876 63.2042L143.394 69.3647C143.489 69.4922 143.509 69.6587 143.452 69.8067L126.193 114.137C126.131 114.295 125.99 114.406 125.823 114.427C125.801 114.429 125.782 114.431 125.761 114.431ZM121.765 107.738L125.636 113.014L142.498 69.708L138.627 64.4314L121.765 107.738Z" fill="#E8F0FF"/>
<path d="M121.243 107.808H98.5562H57.5479L62.066 113.968H103.074H125.761L121.243 107.808Z" fill="#7FADFF"/>
<path d="M125.761 114.431H62.0658C61.9178 114.431 61.7801 114.361 61.6938 114.242L57.1756 108.081C57.0729 107.941 57.0564 107.754 57.1366 107.598C57.2147 107.442 57.375 107.345 57.5498 107.345H121.245C121.393 107.345 121.531 107.415 121.617 107.534L126.135 113.695C126.238 113.835 126.255 114.022 126.174 114.178C126.094 114.332 125.936 114.431 125.761 114.431ZM62.3001 113.506H124.849L121.009 108.27H58.4604L62.3001 113.506Z" fill="#E8F0FF"/>
<path d="M110.437 53.7729C114.752 53.7729 117.689 55.9518 118.554 59.2305C118.889 60.5028 118.912 61.9397 118.583 63.4793C118.448 64.1165 118.25 64.7702 117.991 65.4382C115.673 71.3973 109.128 76.3121 102.875 77.0192C102.394 76.9905 101.904 76.9761 101.405 76.9761C100.905 76.9761 100.404 76.9905 99.9023 77.0192C94.1981 76.3121 91.4807 71.3973 93.8014 65.4382C96.3051 58.9941 103.754 53.7729 110.437 53.7729Z" fill="#2972F5"/>
<path d="M99.8964 77.4799C99.8779 77.4799 99.8594 77.4778 99.8388 77.4758C97.0556 77.1304 94.8397 75.7943 93.5961 73.712C92.2209 71.4098 92.1387 68.4108 93.3618 65.2678C95.9292 58.6736 103.588 53.3086 110.433 53.3086C114.838 53.3086 118.039 55.4772 118.997 59.1114C119.358 60.4866 119.371 61.9871 119.029 63.574C118.888 64.2421 118.68 64.9245 118.415 65.6049C116.067 71.64 109.405 76.744 102.918 77.4778C102.891 77.4799 102.865 77.4819 102.838 77.4799C101.892 77.4244 100.906 77.4244 99.9169 77.4799C99.9149 77.4799 99.9066 77.4799 99.8964 77.4799ZM101.401 76.5117C101.89 76.5117 102.382 76.5261 102.858 76.5528C109.017 75.8395 115.329 70.9946 117.558 65.2699C117.804 64.6368 117.998 64.0016 118.129 63.3808C118.437 61.9358 118.431 60.5791 118.107 59.3478C117.262 56.1473 114.396 54.2356 110.437 54.2356C103.942 54.2356 96.6691 59.3375 94.2271 65.607C93.1089 68.4786 93.1685 71.1899 94.3936 73.2413C95.481 75.0625 97.44 76.2383 99.9149 76.5549C100.412 76.5261 100.912 76.5117 101.401 76.5117Z" fill="#E8F0FF"/>
<path d="M123.498 46.3774L138.502 63.4776H118.582C118.91 61.938 118.888 60.5012 118.553 59.2288L123.498 46.3774Z" fill="#7FADFF"/>
<path d="M138.502 63.94H118.582C118.442 63.94 118.31 63.8763 118.222 63.7673C118.133 63.6584 118.101 63.5165 118.129 63.3788C118.438 61.9338 118.432 60.5771 118.107 59.3458C118.082 59.2513 118.088 59.1526 118.123 59.0621L123.069 46.2088C123.126 46.0566 123.26 45.9477 123.42 45.9189C123.579 45.8901 123.743 45.9477 123.85 46.069L138.853 63.1691C138.973 63.3048 139.001 63.5001 138.927 63.6645C138.849 63.8351 138.685 63.94 138.502 63.94ZM119.141 63.015H137.482L123.657 47.2571L119.038 59.2574C119.324 60.4291 119.357 61.6891 119.141 63.015Z" fill="#E8F0FF"/>
<path d="M101.401 76.9746C101.901 76.9746 102.39 76.989 102.871 77.0178C115.311 77.7598 121.428 87.9513 116.577 100.414H67.9717C72.8248 87.9513 86.8787 77.7578 99.8965 77.0178C100.4 76.989 100.902 76.9746 101.401 76.9746Z" fill="#2972F5"/>
<path d="M116.577 100.879H67.9715C67.8194 100.879 67.6755 100.803 67.5892 100.677C67.5029 100.552 67.4844 100.391 67.5399 100.248C72.4197 87.7169 86.6195 77.3097 99.8696 76.5573C100.895 76.4998 101.917 76.4998 102.897 76.5573C108.861 76.9129 113.632 79.431 116.335 83.6449C119.249 88.1938 119.49 94.2104 117.007 100.585C116.939 100.761 116.768 100.879 116.577 100.879ZM68.656 99.9537H116.259C118.509 93.972 118.263 88.3685 115.556 84.1444C113.017 80.1854 108.503 77.8194 102.844 77.4803C101.898 77.4248 100.912 77.4248 99.9231 77.4803C87.23 78.2018 73.6387 88.0171 68.656 99.9537Z" fill="#E8F0FF"/>
<path d="M123.498 46.3774L118.553 59.2308C117.687 55.9522 114.75 53.7733 110.435 53.7733C103.755 53.7733 96.3033 58.9944 93.7955 65.4386C91.4748 71.3977 94.1922 76.3125 99.8964 77.0196C86.8786 77.7596 72.8247 87.9531 67.9716 100.416H116.577C121.43 87.9531 115.311 77.7617 102.871 77.0196C109.126 76.3125 115.671 71.3977 117.987 65.4386C118.248 64.7705 118.444 64.1169 118.579 63.4797H138.5L121.241 107.81H98.5562H57.5479L81.4663 46.3795H122.292H123.498V46.3774Z" fill="#C3D8FF"/>
<path d="M121.243 108.27H57.5477C57.3956 108.27 57.2517 108.194 57.1654 108.069C57.079 107.943 57.0605 107.783 57.116 107.639L81.0345 46.209C81.1044 46.0322 81.275 45.915 81.4661 45.915H123.498C123.65 45.915 123.794 45.9911 123.878 46.1165C123.965 46.2419 123.983 46.4022 123.93 46.544L118.984 59.3974C118.912 59.5845 118.727 59.7058 118.528 59.6934C118.328 59.6832 118.158 59.5434 118.106 59.3501C117.262 56.1476 114.396 54.238 110.437 54.238C103.942 54.238 96.669 59.3399 94.227 65.6093C93.1088 68.4809 93.1684 71.1922 94.3935 73.2436C95.4871 75.0751 97.4604 76.253 99.9538 76.5634C100.192 76.5921 100.367 76.7977 100.359 77.0382C100.351 77.2766 100.161 77.4719 99.923 77.4843C87.2299 78.2058 73.6386 88.021 68.6559 99.9576H116.258C118.509 93.976 118.263 88.3725 115.555 84.1484C113.017 80.1894 108.503 77.8234 102.844 77.4843C102.603 77.4699 102.416 77.2746 102.408 77.0341C102.4 76.7936 102.581 76.5901 102.819 76.5613C108.99 75.8645 115.325 71.0113 117.558 65.2722C117.804 64.6391 117.997 64.0039 118.129 63.3831C118.174 63.1694 118.363 63.0173 118.581 63.0173H138.502C138.654 63.0173 138.798 63.0933 138.884 63.2187C138.97 63.3441 138.989 63.5044 138.933 63.6483L121.675 107.978C121.605 108.153 121.434 108.27 121.243 108.27ZM58.224 107.345H120.927L137.825 63.9402H118.949C118.814 64.4911 118.637 65.0481 118.419 65.6052C116.409 70.7729 111.235 75.2581 105.718 76.9005C110.363 77.7782 114.073 80.1154 116.335 83.6427C119.249 88.1917 119.49 94.2083 117.007 100.583C116.937 100.759 116.766 100.876 116.575 100.876H67.9714C67.8193 100.876 67.6754 100.8 67.5891 100.675C67.5027 100.55 67.4842 100.389 67.5397 100.245C72.1031 88.5267 84.8208 78.6641 97.2877 76.8203C95.7009 76.1687 94.4305 75.108 93.598 73.7123C92.2229 71.4101 92.1406 68.411 93.3637 65.2681C95.9311 58.6739 103.59 53.3089 110.435 53.3089C114.322 53.3089 117.272 54.9985 118.571 57.8928L122.824 46.84H81.7827L58.224 107.345Z" fill="#E8F0FF"/>
<path d="M51.85 58.4311C51.7904 58.4311 51.7308 58.4188 51.6732 58.3962C48.2199 56.9758 46.3802 53.5944 46.9886 49.7834C47.7923 44.7514 52.6845 40.6567 57.8954 40.6567C58.0783 40.6567 58.2387 40.6608 58.3805 40.6691C61.4864 40.8191 64.0929 42.4574 65.3509 45.0536C65.5873 45.5387 65.7764 46.0629 65.9079 46.6096C66.0662 47.2736 66.1402 47.9601 66.1279 48.6487C66.1197 49.5367 65.3077 50.3178 64.3889 50.3178C63.9942 50.3178 63.6345 50.174 63.3755 49.9109C63.1206 49.6539 62.9829 49.3045 62.987 48.9262C62.9932 48.5624 62.9623 48.2047 62.9007 47.8615C62.8123 47.3784 62.654 46.9118 62.4299 46.474C61.5378 44.735 59.7084 43.6948 57.5357 43.6948C53.9775 43.7051 50.6372 46.5027 50.0904 49.9293C49.7143 52.2891 50.8017 54.4557 52.8572 55.4485C53.0731 55.5533 53.1738 55.8062 53.0874 56.0302L52.2775 58.1351C52.2323 58.2523 52.1439 58.3448 52.0288 58.3941C51.9733 58.4188 51.9117 58.4311 51.85 58.4311Z" fill="#7FADFF"/>
<path d="M57.8954 41.1193C58.0496 41.1193 58.2037 41.1214 58.3538 41.1317C61.3857 41.2776 63.7907 42.8933 64.9357 45.2572C65.1597 45.7176 65.3344 46.2068 65.4598 46.7207C65.6058 47.3333 65.6777 47.9746 65.6674 48.6427C65.6613 49.2819 65.0631 49.8575 64.3909 49.8575C63.838 49.8575 63.4474 49.4608 63.4516 48.9325C63.4577 48.5358 63.4248 48.1514 63.3591 47.7814C63.2604 47.2428 63.0857 46.7351 62.8452 46.2664C61.9099 44.4411 59.953 43.2345 57.5398 43.2345C53.7596 43.2468 50.2199 46.2109 49.6362 49.8575C49.2127 52.5153 50.4789 54.8134 52.6599 55.8659L51.85 57.9708C48.7153 56.6819 46.8591 53.5349 47.4449 49.8575C48.2137 45.0372 52.8983 41.1193 57.8954 41.1193ZM57.8954 40.1943C55.2622 40.1943 52.6332 41.181 50.4913 42.9714C48.3453 44.7659 46.9393 47.1586 46.5302 49.7095C46.2137 51.6952 46.5282 53.613 47.4429 55.2574C48.3391 56.869 49.741 58.1023 51.4964 58.8238C51.6095 58.8711 51.7287 58.8937 51.848 58.8937C51.9733 58.8937 52.0967 58.8691 52.2138 58.8177C52.442 58.719 52.6208 58.5319 52.7113 58.2997L53.5212 56.1948C53.6938 55.7446 53.4944 55.2389 53.0607 55.0293C51.1634 54.1146 50.2014 52.1864 50.5488 49.9993C51.0627 46.7886 54.1995 44.1657 57.5418 44.1554C59.5337 44.1554 61.2089 45.1009 62.0209 46.6837C62.2223 47.0804 62.3662 47.5059 62.4464 47.9438C62.5039 48.2562 62.5286 48.5831 62.5245 48.914C62.5183 49.4197 62.7033 49.8863 63.0466 50.2316C63.394 50.5831 63.8709 50.7763 64.3889 50.7763C65.5708 50.7763 66.5801 49.7999 66.5904 48.6447C66.6027 47.9253 66.5246 47.2017 66.3581 46.5008C66.2163 45.917 66.0169 45.362 65.7641 44.8461C64.4321 42.0978 61.6756 40.3608 58.3949 40.2026C58.2551 40.1984 58.0886 40.1943 57.8954 40.1943Z" fill="#E8F0FF"/>
<path d="M36.7396 97.5276C36.68 97.5276 36.6184 97.5152 36.5608 97.4926C33.1342 96.062 31.3109 92.6867 31.9153 88.8963C32.7169 83.8622 37.6133 79.7676 42.8261 79.7676C42.9721 79.7676 43.1139 79.7717 43.2558 79.7779C46.3699 79.9156 48.9866 81.5395 50.259 84.1192C50.5016 84.6125 50.6948 85.1367 50.8284 85.6794C50.9929 86.3474 51.073 87.0463 51.0628 87.7575C51.0504 88.6496 50.2364 89.4328 49.3217 89.4328C48.927 89.4328 48.5653 89.2868 48.3042 89.0237C48.0493 88.7668 47.9137 88.4153 47.9178 88.0391C47.9239 87.6568 47.891 87.2786 47.8191 86.9147C47.7245 86.4296 47.5621 85.9692 47.3381 85.5416C46.4378 83.8314 44.6268 82.8098 42.4911 82.8098L42.4438 82.8119C38.8898 82.8427 35.5659 85.6403 35.0233 89.0443C34.6491 91.3876 35.7221 93.546 37.7571 94.547C37.973 94.6518 38.0716 94.9047 37.9853 95.1287L37.1734 97.2357C37.1281 97.3529 37.0377 97.4454 36.9226 97.4947C36.863 97.5152 36.8013 97.5276 36.7396 97.5276Z" fill="#7FADFF"/>
<path d="M42.8282 80.2302C42.968 80.2302 43.1036 80.2343 43.2414 80.2405C46.2774 80.3741 48.6865 81.9733 49.8459 84.3248C50.074 84.7873 50.2529 85.2766 50.3803 85.7905C50.5345 86.4133 50.6105 87.069 50.6002 87.7494C50.592 88.3907 49.9918 88.9683 49.3217 88.9683C48.7687 88.9683 48.3741 88.5716 48.3823 88.0433C48.3885 87.622 48.3515 87.215 48.2754 86.8223C48.1706 86.2879 47.9917 85.7843 47.7492 85.3218C46.8057 83.5273 44.8837 82.3433 42.4931 82.3433L42.4294 82.3453C38.6657 82.3782 35.1486 85.3341 34.569 88.9683C34.1476 91.6097 35.3974 93.8976 37.5557 94.9582L37.3172 95.577L36.7437 97.0631C33.6337 95.764 31.794 92.6252 32.3777 88.9663C33.1424 84.1481 37.8291 80.2302 42.8282 80.2302ZM42.8282 79.3052C37.3974 79.3052 32.2976 83.5746 31.461 88.8224C31.1465 90.7978 31.4569 92.7095 32.3634 94.3477C33.2514 95.9552 34.6409 97.1885 36.384 97.9162C36.4971 97.9635 36.6204 97.9881 36.7396 97.9881C36.863 97.9881 36.9863 97.9635 37.1035 97.9141C37.3337 97.8155 37.5125 97.6284 37.603 97.3961L38.1765 95.91L38.4149 95.2892C38.5876 94.8431 38.3902 94.3375 37.9606 94.1257C36.0839 93.2028 35.1322 91.2829 35.4796 89.1122C35.9894 85.9199 39.1097 83.2991 42.4356 83.2703C42.4438 83.2703 42.4541 83.2703 42.4623 83.2703L42.5096 83.2683C44.4624 83.2744 46.115 84.2015 46.9311 85.7535C47.1346 86.142 47.2826 86.5613 47.3689 87.0012C47.4347 87.3342 47.4655 87.6795 47.4594 88.031C47.4511 88.5326 47.6361 88.9992 47.9774 89.3466C48.3247 89.7001 48.8037 89.8933 49.3237 89.8933C50.5036 89.8933 51.5129 88.917 51.5273 87.7617C51.5376 87.0135 51.4554 86.2735 51.2806 85.5684C51.1388 84.9949 50.9374 84.44 50.6784 83.9158C49.3279 81.1819 46.5652 79.4614 43.2845 79.3175C43.1304 79.3093 42.9824 79.3052 42.8282 79.3052Z" fill="#E8F0FF"/>
<path d="M29.1875 117.078C29.1258 117.078 29.0662 117.066 29.0087 117.041C25.395 115.518 23.5861 111.806 24.509 107.805C25.6067 103.049 30.3489 99.3242 35.3069 99.3242C35.4158 99.3242 35.5248 99.3263 35.6337 99.3304L35.7015 99.3324C38.8034 99.4619 41.4222 101.071 42.7069 103.633C42.9556 104.13 43.1509 104.658 43.2886 105.203C43.4592 105.879 43.5394 106.591 43.5291 107.312C43.5127 108.204 42.7007 108.985 41.788 108.985C41.3934 108.985 41.0316 108.839 40.7705 108.576C40.5157 108.319 40.38 107.97 40.3841 107.594C40.3903 107.181 40.3512 106.774 40.269 106.385C40.1683 105.908 39.9997 105.454 39.7715 105.035C38.863 103.361 37.0623 102.364 34.9554 102.364C34.9492 102.364 34.8834 102.366 34.8732 102.366C31.3417 102.408 28.0282 105.201 27.4875 108.597C27.1093 110.967 28.1515 113.074 30.205 114.091C30.4188 114.198 30.5174 114.449 30.4311 114.671L29.6192 116.78C29.5739 116.897 29.4835 116.99 29.3684 117.039C29.3108 117.066 29.2491 117.078 29.1875 117.078Z" fill="#7FADFF"/>
<path d="M35.3047 99.7868C35.4075 99.7868 35.5123 99.7889 35.6171 99.793L35.6829 99.795C38.7107 99.9225 41.1198 101.505 42.2915 103.84C42.5238 104.305 42.7088 104.798 42.8383 105.316C42.9966 105.947 43.0747 106.613 43.0644 107.306C43.0541 107.947 42.456 108.523 41.7858 108.523C41.2329 108.523 40.8382 108.126 40.8465 107.6C40.8526 107.146 40.8095 106.708 40.7211 106.289C40.6101 105.762 40.4251 105.269 40.1784 104.813C39.2226 103.055 37.3191 101.9 34.9573 101.9C34.9306 101.9 34.8977 101.9 34.871 101.902C31.1155 101.945 27.6107 104.895 27.0331 108.521C26.6117 111.158 27.8533 113.438 30.0013 114.503L29.9746 114.572L29.1894 116.612C25.919 115.232 24.0608 111.814 24.9611 107.906C26.0136 103.345 30.5933 99.7868 35.3047 99.7868ZM35.3047 98.8618C30.1411 98.8618 25.2016 102.745 24.0567 107.701C23.0803 111.927 24.9981 115.853 28.8256 117.467C28.9407 117.516 29.062 117.539 29.1853 117.539C29.3086 117.539 29.4319 117.514 29.5471 117.465C29.7773 117.366 29.9582 117.179 30.0486 116.947L30.8338 114.907L30.8606 114.838C31.0332 114.392 30.8359 113.888 30.4083 113.676C28.5419 112.751 27.5963 110.831 27.9417 108.669C28.4494 105.487 31.5595 102.866 34.8771 102.829C34.8956 102.829 34.9141 102.829 34.9326 102.827H34.9532C36.8875 102.827 38.5339 103.736 39.3623 105.257C39.57 105.637 39.7221 106.05 39.8125 106.482C39.8886 106.837 39.9235 107.209 39.9173 107.588C39.9112 108.089 40.0941 108.556 40.4353 108.901C40.7827 109.255 41.2617 109.448 41.7817 109.448C42.9555 109.448 43.9647 108.474 43.9853 107.322C43.9956 106.558 43.9113 105.81 43.7304 105.092C43.5845 104.513 43.3768 103.953 43.1137 103.427C41.753 100.712 38.9882 99.0098 35.7178 98.8721L35.6438 98.87C35.5349 98.8639 35.4198 98.8618 35.3047 98.8618Z" fill="#E8F0FF"/>
<path d="M55.8869 72.6845C54.6556 72.6845 53.6545 72.2035 53.0728 71.3299C52.4829 70.4542 52.4089 69.2743 52.8693 68.0944C53.266 67.0728 54.0287 66.1149 55.0112 65.3955C55.0914 65.3379 55.1859 65.3071 55.2846 65.3071C55.3195 65.3071 55.3545 65.3112 55.3894 65.3194C55.521 65.3503 55.632 65.4366 55.6937 65.5538C55.9609 66.0594 56.152 66.6062 56.2651 67.1777C56.2959 67.338 56.2425 67.5004 56.1212 67.6093C55.7307 67.9608 55.4408 68.3637 55.2825 68.7707C55.114 69.2003 55.114 69.5724 55.2825 69.8232C55.4347 70.0472 55.7409 70.1726 56.1438 70.1726C57.2785 70.1726 58.6537 69.2024 59.0853 68.0944C59.2518 67.6648 59.2518 67.2907 59.0853 67.0441C58.9332 66.8159 58.6269 66.6905 58.2261 66.6905C58.1459 66.6905 58.0617 66.6946 57.9774 66.7049C57.9589 66.7069 57.9404 66.709 57.9239 66.709C57.7143 66.709 57.5252 66.5651 57.4758 66.3554C57.3587 65.8786 57.1922 65.4161 56.9784 64.9803C56.9167 64.8549 56.9147 64.7069 56.9743 64.5794C57.0339 64.452 57.149 64.3595 57.2847 64.3266C57.6875 64.23 58.0904 64.1807 58.481 64.1807C59.7102 64.1807 60.7092 64.6617 61.295 65.5332C61.8829 66.4068 61.959 67.5867 61.5006 68.7687C60.6373 70.9661 58.1768 72.6845 55.8869 72.6845Z" fill="#2972F5"/>
<path d="M58.4726 64.6452C59.5415 64.6452 60.4048 65.0522 60.9022 65.7943C61.4058 66.5425 61.4634 67.5682 61.0605 68.6042C60.2712 70.6331 57.9977 72.2199 55.8867 72.2199C54.8178 72.2199 53.9524 71.8129 53.457 71.0709C52.9534 70.3227 52.8938 69.2969 53.2987 68.2609C53.679 67.2866 54.4005 66.413 55.2823 65.7675C55.5249 66.23 55.7037 66.7316 55.8086 67.266C55.3831 67.6504 55.0398 68.1129 54.8486 68.6042C54.6246 69.1798 54.641 69.7019 54.8938 70.0801C55.1364 70.4378 55.5763 70.6351 56.1395 70.6351C57.4653 70.6351 59.0091 69.5477 59.5106 68.263C59.7326 67.6874 59.7182 67.1653 59.4633 66.7871C59.2228 66.4274 58.7809 66.23 58.2218 66.23C58.1211 66.23 58.0203 66.2362 57.9196 66.2485C57.7942 65.7326 57.6154 65.2413 57.3872 64.7788C57.747 64.6925 58.1108 64.6452 58.4726 64.6452ZM58.4726 63.7202C58.0471 63.7202 57.6072 63.7737 57.1693 63.8785C56.896 63.9443 56.6678 64.1313 56.5486 64.3842C56.4293 64.637 56.4314 64.933 56.5547 65.1858C56.7541 65.5908 56.9103 66.0224 57.0193 66.4664C57.1221 66.8837 57.4962 67.1715 57.9176 67.1715C57.9546 67.1715 57.9895 67.1694 58.0265 67.1653C58.0923 67.1571 58.1581 67.153 58.2218 67.153C58.4541 67.153 58.635 67.2085 58.6966 67.2989C58.7542 67.3853 58.7768 67.599 58.6493 67.9259C58.2876 68.857 57.0912 69.7081 56.1416 69.7081C55.9072 69.7081 55.7243 69.6505 55.6626 69.5601C55.6051 69.4737 55.5866 69.262 55.712 68.9393C55.8435 68.6022 56.0984 68.2507 56.4314 67.9505C56.6719 67.7327 56.7808 67.4038 56.7192 67.0852C56.5979 66.4705 56.3903 65.8806 56.1046 65.3359C55.9792 65.0974 55.7572 64.9268 55.4941 64.8652C55.4242 64.8487 55.3543 64.8405 55.2844 64.8405C55.0891 64.8405 54.898 64.9022 54.7397 65.0193C53.6852 65.7881 52.8671 66.82 52.4375 67.9238C51.9215 69.2455 52.014 70.5817 52.6903 71.5868C53.3604 72.5899 54.4971 73.1429 55.8887 73.1429C58.3965 73.1429 60.9927 71.334 61.9259 68.9372C62.4398 67.6114 62.3473 66.2773 61.6731 65.2742C60.9968 64.2752 59.8601 63.7202 58.4726 63.7202Z" fill="#E8F0FF"/>
<path d="M44.2936 77.9794C44.234 77.9794 44.1723 77.9671 44.1168 77.9445C40.6779 76.518 38.8484 73.1386 39.4569 69.3379C40.2585 64.3079 45.1508 60.2153 50.3636 60.2153C50.5116 60.2153 50.6638 60.2153 50.8159 60.2236C50.8179 60.2236 50.82 60.2236 50.822 60.2236C53.9218 60.3674 56.5303 61.9934 57.8006 64.5731C57.8068 64.5834 57.8109 64.5937 57.815 64.606C58.0473 65.0829 58.2344 65.5968 58.368 66.1353C58.5304 66.7931 58.6064 67.4879 58.5982 68.2012C58.5859 69.0912 57.7719 69.8723 56.8551 69.8723C56.4604 69.8723 56.1007 69.7264 55.8396 69.4633C55.5868 69.2063 55.4511 68.8569 55.4573 68.4807C55.4635 68.1004 55.4285 67.7222 55.3545 67.3584C55.26 66.8753 55.0976 66.4128 54.8735 65.9832C54.4419 65.161 53.78 64.4786 52.9619 64.0078C52.1458 63.5351 51.2167 63.2822 50.1992 63.2555C50.1416 63.2534 50.0944 63.2534 50.043 63.2534C50.0368 63.2534 49.9834 63.2534 49.9834 63.2534C46.4314 63.2925 43.0993 66.086 42.5587 69.4838C42.1846 71.8354 43.2638 73.9999 45.309 74.9968C45.5249 75.1017 45.6256 75.3545 45.5372 75.5786L44.7232 77.6834C44.678 77.8006 44.5875 77.8931 44.4745 77.9424C44.4169 77.9671 44.3553 77.9794 44.2936 77.9794Z" fill="#7FADFF"/>
<path d="M50.3616 60.676C50.5076 60.676 50.6535 60.676 50.7953 60.6842H50.7974C53.8232 60.824 56.2261 62.4273 57.3834 64.7768V64.7789C57.6116 65.2393 57.7883 65.7326 57.9158 66.2445C58.0679 66.8632 58.1398 67.5148 58.1316 68.1911C58.1234 68.8324 57.5232 69.4059 56.851 69.4059C56.3001 69.4059 55.9075 69.0092 55.9157 68.485C55.9219 68.0657 55.8828 67.6566 55.8047 67.264C55.6999 66.7296 55.5211 66.2301 55.2806 65.7655C54.8078 64.8673 54.0904 64.1211 53.1901 63.6031C52.3391 63.1098 51.3277 62.8199 50.2074 62.7891C50.1458 62.787 50.0841 62.787 50.0204 62.787H49.9834C46.1827 62.8281 42.6779 65.7799 42.1003 69.408C41.6769 72.0596 42.9349 74.3516 45.1056 75.4102L44.2916 77.5151C41.1733 76.2201 39.3233 73.0792 39.9112 69.408C40.6779 64.5939 45.3625 60.676 50.3616 60.676ZM50.3616 59.751C47.7284 59.751 45.0973 60.7376 42.9554 62.528C40.8094 64.3225 39.4034 66.7152 38.9964 69.2641C38.6799 71.2456 38.9923 73.1614 39.9029 74.8018C40.793 76.4113 42.1887 77.6446 43.938 78.3702C44.0511 78.4175 44.1723 78.4401 44.2916 78.4401C44.4149 78.4401 44.5403 78.4154 44.6554 78.3661C44.8836 78.2674 45.0644 78.0824 45.1549 77.8481L45.9689 75.7432C46.1416 75.2951 45.9442 74.7894 45.5105 74.5777C43.6235 73.6589 42.6656 71.7328 43.013 69.5519C43.5207 66.3678 46.6513 63.747 49.9916 63.71H50.0224C50.0348 63.71 50.0451 63.71 50.0574 63.71C50.0944 63.71 50.1314 63.71 50.1663 63.712C50.1725 63.712 50.1787 63.712 50.1848 63.712C51.1242 63.7367 51.9793 63.969 52.7276 64.4006C53.4717 64.8282 54.0698 65.449 54.4624 66.1931C54.6659 66.5816 54.8119 67.0009 54.8982 67.4388C54.9661 67.7738 54.9969 68.1191 54.9907 68.4686C54.9825 68.966 55.1654 69.4326 55.5067 69.78C55.8541 70.1336 56.3309 70.3289 56.851 70.3289C58.0309 70.3289 59.0402 69.3545 59.0566 68.2014C59.0669 67.449 58.9847 66.7152 58.8141 66.0204C58.6722 65.451 58.4769 64.9104 58.2323 64.4089C58.2262 64.3924 58.2179 64.378 58.2118 64.3636C56.8654 61.6298 54.1089 59.9072 50.8385 59.7551C50.8364 59.7551 50.8344 59.7551 50.8323 59.7551C50.672 59.751 50.5137 59.751 50.3616 59.751Z" fill="#E8F0FF"/>
<path d="M140.656 43.0493L141.061 45.5838C141.305 47.1029 142.347 48.293 143.848 48.7617L146.354 49.5428L143.599 50.3239C141.951 50.7926 140.528 51.9828 139.799 53.5018L138.584 56.0363L138.177 53.5018C137.932 51.9828 136.89 50.7926 135.389 50.3239L132.886 49.5428L135.638 48.7617C137.287 48.293 138.709 47.1029 139.439 45.5838L140.656 43.0493Z" fill="#2972F5"/>
<path d="M25.6743 24.1465L25.9847 26.089C26.1717 27.2545 26.9713 28.1672 28.1225 28.5248L30.0423 29.123L27.9313 29.7253C26.6671 30.0829 25.5756 30.9956 25.0165 32.159L24.0853 34.1036L23.775 32.159C23.5879 30.9935 22.7883 30.0829 21.6372 29.7253L19.7173 29.125L21.8283 28.5269C23.0925 28.1692 24.184 27.2545 24.7431 26.091L25.6743 24.1465Z" fill="#2972F5"/>
<path d="M107.59 91.7598L107.763 92.843C107.867 93.4905 108.313 94.0003 108.955 94.1997L110.024 94.5327L108.848 94.8657C108.143 95.0672 107.534 95.5749 107.222 96.2224L106.702 97.3057L106.529 96.2224C106.424 95.5749 105.98 95.0651 105.339 94.8657L104.268 94.5327L105.446 94.1997C106.151 93.9983 106.757 93.4905 107.07 92.843L107.59 91.7598Z" fill="#E8F0FF"/>
<path d="M12.6809 109.777L12.8536 110.86C12.9584 111.51 13.4045 112.017 14.0458 112.217L15.1147 112.55L13.9389 112.883C13.2339 113.084 12.6255 113.592 12.313 114.242L11.795 115.325L11.6223 114.242C11.5196 113.592 11.0735 113.084 10.4322 112.883L9.36328 112.55L10.5391 112.217C11.2441 112.017 11.8526 111.51 12.1629 110.86L12.6809 109.777Z" fill="#2972F5"/>
</svg>
