<svg width="7" height="7" viewBox="0 0 7 7" fill="none" xmlns="http://www.w3.org/2000/svg">
<path d="M1.1755 2.95358H5.7693M2.19634 1.1671V1.67753M4.74846 1.1671V1.67753M1.99217 5.76091H4.95263C5.23849 5.76091 5.38142 5.76091 5.49061 5.70528C5.58665 5.65634 5.66474 5.57826 5.71367 5.48222C5.7693 5.37303 5.7693 5.2301 5.7693 4.94424V2.4942C5.7693 2.20834 5.7693 2.06541 5.71367 1.95622C5.66474 1.86018 5.58665 1.7821 5.49061 1.73316C5.38142 1.67753 5.23849 1.67753 4.95263 1.67753H1.99217C1.70631 1.67753 1.56338 1.67753 1.45419 1.73316C1.35815 1.7821 1.28007 1.86018 1.23113 1.95622C1.1755 2.06541 1.1755 2.20834 1.1755 2.4942V4.94424C1.1755 5.2301 1.1755 5.37303 1.23113 5.48222C1.28007 5.57826 1.35815 5.65634 1.45419 5.70528C1.56338 5.76091 1.70631 5.76091 1.99217 5.76091Z" stroke="#374B5C" stroke-width="0.380111" stroke-linecap="round" stroke-linejoin="round"/>
</svg>
