<svg width="20" height="20" viewBox="0 0 20 20" fill="none" xmlns="http://www.w3.org/2000/svg">
<path d="M8 1H2C1.73478 1 1.48043 1.10536 1.29289 1.29289C1.10536 1.48043 1 1.73478 1 2V8C1 8.26522 1.10536 8.51957 1.29289 8.70711C1.48043 8.89464 1.73478 9 2 9H8C8.26522 9 8.51957 8.89464 8.70711 8.70711C8.89464 8.51957 9 8.26522 9 8V2C9 1.73478 8.89464 1.48043 8.70711 1.29289C8.51957 1.10536 8.26522 1 8 1ZM18 1H12C11.7348 1 11.4804 1.10536 11.2929 1.29289C11.1054 1.48043 11 1.73478 11 2V8C11 8.26522 11.1054 8.51957 11.2929 8.70711C11.4804 8.89464 11.7348 9 12 9H18C18.2652 9 18.5196 8.89464 18.7071 8.70711C18.8946 8.51957 19 8.26522 19 8V2C19 1.73478 18.8946 1.48043 18.7071 1.29289C18.5196 1.10536 18.2652 1 18 1ZM8 11H2C1.73478 11 1.48043 11.1054 1.29289 11.2929C1.10536 11.4804 1 11.7348 1 12V18C1 18.2652 1.10536 18.5196 1.29289 18.7071C1.48043 18.8946 1.73478 19 2 19H8C8.26522 19 8.51957 18.8946 8.70711 18.7071C8.89464 18.5196 9 18.2652 9 18V12C9 11.7348 8.89464 11.4804 8.70711 11.2929C8.51957 11.1054 8.26522 11 8 11ZM15 11C15.7826 11 16.548 11.2296 17.2014 11.6603C17.8549 12.091 18.3676 12.7039 18.6761 13.4232C18.9846 14.1424 19.0753 14.9363 18.9371 15.7066C18.7988 16.4769 18.4376 17.1898 17.8983 17.7568C17.3589 18.3239 16.665 18.7202 15.9026 18.8968C15.1402 19.0734 14.3427 19.0225 13.6089 18.7503C12.8752 18.4782 12.2374 17.9967 11.7745 17.3657C11.3117 16.7346 11.0441 15.9816 11.005 15.2L11 15L11.005 14.8C11.0563 13.775 11.4996 12.809 12.2432 12.1017C12.9868 11.3944 13.9738 11 15 11Z" fill="white"/>
</svg>
