<svg width="3" height="3" viewBox="0 0 3 3" fill="none" xmlns="http://www.w3.org/2000/svg">
<path d="M0.941781 0.391666L2.7954 0.141177C2.80497 0.139878 2.81419 0.140479 2.82254 0.142943C2.83089 0.145408 2.8382 0.149689 2.84405 0.155541C2.8499 0.161393 2.85418 0.168702 2.85665 0.177049C2.85911 0.185397 2.85971 0.194619 2.85841 0.204189L2.60792 2.05781C2.60531 2.07713 2.59513 2.0967 2.57962 2.11221C2.56411 2.12772 2.54454 2.1379 2.52522 2.14051C2.5059 2.14312 2.4884 2.13795 2.47659 2.12613C2.46477 2.11432 2.4596 2.09682 2.46221 2.0775L2.68894 0.399717L0.258398 2.83026C0.242897 2.84576 0.223339 2.85593 0.204026 2.85854C0.184714 2.86115 0.16723 2.85598 0.155419 2.84417C0.143609 2.83236 0.13844 2.81488 0.141049 2.79556C0.143659 2.77625 0.153834 2.75669 0.169335 2.74119L2.59987 0.310654L0.92209 0.537381C0.902767 0.539992 0.885272 0.534821 0.873455 0.523004C0.861638 0.511187 0.856466 0.493692 0.859078 0.474369C0.861689 0.455046 0.871869 0.435477 0.887379 0.419968C0.902889 0.404458 0.922458 0.394277 0.941781 0.391666Z" fill="white" stroke="white" stroke-width="0.267472"/>
</svg>
