<svg width="157" height="162" viewBox="0 0 157 162" fill="none" xmlns="http://www.w3.org/2000/svg">
<g filter="url(#filter0_d_90_14581)">
<path d="M48.3525 3.06336V78.3136C48.3526 88.2499 51.8582 96.7977 58.9134 103.853C65.968 110.907 74.4555 114.413 84.4526 114.413C94.454 114.413 102.76 110.905 109.812 103.853L109.811 103.852C116.921 96.8019 120.552 88.3168 120.552 78.3136V3.06336H154.355V78.3136C154.354 97.6988 147.465 114.209 133.728 127.887L133.727 127.888C120.35 141.265 104.214 148.033 85.2183 148.21V148.155H84.4526C65.0651 148.155 48.5537 141.324 34.8763 127.706H34.8753C21.3212 114.151 14.5506 97.7018 14.5506 78.3136V3.06336H48.3525Z" stroke="url(#paint0_linear_90_14581)" stroke-width="1.53146" shape-rendering="crispEdges"/>
</g>
<defs>
<filter id="filter0_d_90_14581" x="7.58262e-05" y="0.000175497" width="156.651" height="162" filterUnits="userSpaceOnUse" color-interpolation-filters="sRGB">
<feFlood flood-opacity="0" result="BackgroundImageFix"/>
<feColorMatrix in="SourceAlpha" type="matrix" values="0 0 0 0 0 0 0 0 0 0 0 0 0 0 0 0 0 0 127 0" result="hardAlpha"/>
<feOffset dx="-6.12583" dy="5.36011"/>
<feGaussianBlur stdDeviation="3.82865"/>
<feComposite in2="hardAlpha" operator="out"/>
<feColorMatrix type="matrix" values="0 0 0 0 0 0 0 0 0 0 0 0 0 0 0 0 0 0 0.15 0"/>
<feBlend mode="normal" in2="BackgroundImageFix" result="effect1_dropShadow_90_14581"/>
<feBlend mode="normal" in="SourceGraphic" in2="effect1_dropShadow_90_14581" result="shape"/>
</filter>
<linearGradient id="paint0_linear_90_14581" x1="189.924" y1="-67.4101" x2="28.3355" y2="138.979" gradientUnits="userSpaceOnUse">
<stop stop-color="#2972F5" stop-opacity="0.3"/>
<stop offset="0.808027" stop-color="white" stop-opacity="0"/>
</linearGradient>
</defs>
</svg>
