<svg width="192" height="232" viewBox="0 0 192 232" fill="none" xmlns="http://www.w3.org/2000/svg">
<g filter="url(#filter0_d_90_14771)">
<path d="M48.4135 72.8628V148.208C48.4136 158.157 51.9236 166.715 58.9877 173.779C66.0513 180.843 74.5494 184.353 84.5591 184.353C94.5732 184.353 102.89 180.84 109.951 173.779L109.95 173.779C117.069 166.72 120.704 158.224 120.704 148.208V72.8628H154.549V148.208C154.549 167.618 147.651 184.149 133.897 197.844L133.896 197.845C120.502 211.239 104.345 218.016 85.3258 218.193V218.138H84.5591C65.4506 218.138 49.1327 211.511 35.5647 198.298L34.9203 197.664C21.3485 184.092 14.569 167.621 14.5689 148.208V72.8628H48.4135ZM189.548 3.06722V33.1214H80.7942V3.06722H189.548Z" stroke="url(#paint0_linear_90_14771)" stroke-width="1.53146" shape-rendering="crispEdges"/>
</g>
<defs>
<filter id="filter0_d_90_14771" x="7.0192e-05" y="0.000174764" width="191.848" height="232" filterUnits="userSpaceOnUse" color-interpolation-filters="sRGB">
<feFlood flood-opacity="0" result="BackgroundImageFix"/>
<feColorMatrix in="SourceAlpha" type="matrix" values="0 0 0 0 0 0 0 0 0 0 0 0 0 0 0 0 0 0 127 0" result="hardAlpha"/>
<feOffset dx="-6.12584" dy="5.36011"/>
<feGaussianBlur stdDeviation="3.82865"/>
<feComposite in2="hardAlpha" operator="out"/>
<feColorMatrix type="matrix" values="0 0 0 0 0 0 0 0 0 0 0 0 0 0 0 0 0 0 0.15 0"/>
<feBlend mode="normal" in2="BackgroundImageFix" result="effect1_dropShadow_90_14771"/>
<feBlend mode="normal" in="SourceGraphic" in2="effect1_dropShadow_90_14771" result="shape"/>
</filter>
<linearGradient id="paint0_linear_90_14771" x1="190.164" y1="2.30055" x2="28.3712" y2="208.95" gradientUnits="userSpaceOnUse">
<stop stop-color="#2972F5" stop-opacity="0.3"/>
<stop offset="0.808027" stop-color="white" stop-opacity="0"/>
</linearGradient>
</defs>
</svg>
