<svg width="3" height="3" viewBox="0 0 3 3" fill="none" xmlns="http://www.w3.org/2000/svg">
<path d="M0.941984 0.391667L2.79575 0.141158C2.80532 0.139859 2.81455 0.14046 2.82289 0.142925C2.83124 0.14539 2.83855 0.149671 2.8444 0.155523C2.85026 0.161376 2.85454 0.168685 2.857 0.177033C2.85947 0.185381 2.86007 0.194604 2.85877 0.204175L2.60826 2.05794C2.60565 2.07727 2.59547 2.09684 2.57996 2.11235C2.56445 2.12786 2.54488 2.13804 2.52555 2.14065C2.50623 2.14327 2.48873 2.13809 2.47691 2.12628C2.46509 2.11446 2.45992 2.09696 2.46253 2.07764L2.68928 0.399719L0.258546 2.83045C0.243043 2.84596 0.223484 2.85613 0.20417 2.85874C0.184856 2.86135 0.16737 2.85618 0.155558 2.84437C0.143747 2.83256 0.138578 2.81507 0.141188 2.79576C0.143798 2.77644 0.153973 2.75689 0.169476 2.74138L2.60021 0.310649L0.922291 0.537394C0.902966 0.540006 0.88547 0.534834 0.873652 0.523016C0.861834 0.511198 0.856662 0.493702 0.859274 0.474377C0.861885 0.455053 0.872066 0.435482 0.887577 0.419971C0.903089 0.40446 0.922659 0.394279 0.941984 0.391667Z" fill="white" stroke="white" stroke-width="0.235757"/>
</svg>
