<?xml version="1.0" encoding="UTF-8"?>
<svg id="Layer_1" data-name="Layer 1" xmlns="http://www.w3.org/2000/svg" viewBox="0 0 241 79">
  <defs>
    <style>
      .cls-1 {
        fill: #060505;
      }
    </style>
  </defs>
  <path class="cls-1" d="M49.25,24c.44.12,2.21,2.74,2.68,3.43,5.68,8.41,11.77,18.61,16.98,27.41.66,1.12,1.65,2.31,1.59,3.66h-12.75c-1.68-1.09-2.61-5.7-4.49-6.02-1-.17-.64.29-.88.66-1.09,1.74-1.86,3.72-3.13,5.36h-8.25V24h8.25ZM44,27v28.5c1.05-.1,2.6.31,3.51-.24,1.12-.68,3.81-7.65,5.75-8.75,1.37-.29,4.71,7.75,6.23,8.75h5.51s-16.51-27-16.51-27c-1.03-1.66-2.77-1.27-4.49-1.26Z"/>
  <path class="cls-1" d="M175.5,50v-8.25c0-3.58-4-5.4-6.98-3.48s-.9,7.81-1.59,10.91c-.38,1.16-1.96.8-2.93.82v-9.25c0-1.29-1.99-2.91-3.38-3.14-7.51-1.22-5.32,6.86-5.69,11.57-.38,1.16-1.96.8-2.93.82v-15c3.15,1.03,5.79-.72,8.74-.51,2.21.16,3.74,1.8,4.6,1.94.27.04,3.21-1.79,4.91-1.93,8.56-.71,9.09,7.1,8.27,13.78-.26,2.13-1.06,1.76-3.02,1.73Z"/>
  <polygon class="cls-1" points="75.5 24 75.5 58.5 72.5 57.75 72.5 27 68.24 27.49 61.25 38.49 59.7 35.49 67.25 24 75.5 24"/>
  <path class="cls-1" d="M211.5,50c-1.43.34-2.92-.5-4.2-.46-1.39.04-2.89.99-4.55.99-2.84,0-6.6-1.44-6.67-4.78-.11-6.03,8.32-5.31,12.42-5.27-.45-3.1-3.88-3.6-6.53-2.77-1.69.53-2.43,3.1-4.97,2.27-1.14-6.3,10.45-6.87,13.22-3.47.25.3,1.28,2.54,1.28,2.72v10.75ZM208,43.5c-2.7.27-6.02-.8-8.26.99-2.4,3.99,9.45,4.29,8.26-.99Z"/>
  <path class="cls-1" d="M104,50l-1.95-.07c.03-2.88-1.05-.76-2.19-.33-3.47,1.32-10.65,1.68-10.88-3.36-.29-6.39,8.83-5.02,13.03-5.25.49-4.28-5.35-5.54-8.38-4.13-.34.16-4.66,5.76-3.91,1.61.87-4.84,10.23-4.94,12.81-2.24.25.26,1.49,2.37,1.49,2.51v11.25ZM102,43h-7.75c-1.67,0-4.57,2.76-2.39,4.53,3.26,2.65,10.42.26,10.14-4.53Z"/>
  <path class="cls-1" d="M138.87,34.62c7.37-1.23,11.65,3.68,9.92,10.91-1.61,6.72-14.23,6.58-16.05-.52-1.22-4.77,1.1-9.55,6.13-10.39ZM139.37,36.62c-5.53,1.01-6.35,9.63-.73,11.49,10.38,3.44,11.84-13.51.73-11.49Z"/>
  <path class="cls-1" d="M187,31.5l2.78.47.22,3.04,5.04.3.36,1.38-.91,1.07-4.5.25.63,8.88c1.43,1.25,6.91-1.58,4.04,3.14-2.53.27-7.66.32-7.66-3.27v-15.25Z"/>
  <path class="cls-1" d="M108.5,35v10.25c0,.41,2.32,2.73,3.02,2.97,3.29,1.14,7.48-.83,7.48-4.47v-8.75h2v14.25c0,.53-1.44.95-2,.75l-.25-1.5c-2.85,3.59-12.25,1.85-12.25-2.75v-10.75h2Z"/>
  <path class="cls-1" d="M126,46.25c.83,3.87,6.03.34,5.5,3.5-.19,1.16-6.21.81-7.17-1.37-.83-1.89-1.4-15.22-.6-16.39,2.21-1.76,2.27,1.19,2.26,3.01h5.5s0,1.5,0,1.5h-5.5c.41,2.83-.56,7.15,0,9.75Z"/>
  <rect class="cls-1" x="181" y="35" width="3" height="15"/>
  <path class="cls-1" d="M211.63,30.63c2.3-2.65,7.08,2.7,2.39,4.17-2.4.75-3.63-2.73-2.39-4.17Z"/>
  <path class="cls-1" d="M183.95,30.06c1.35,1.19-.4,4.74-2.48,3.23s.87-4.66,2.48-3.23Z"/>
</svg>