<?xml version="1.0" encoding="UTF-8"?>
<svg id="Layer_1" data-name="Layer 1" xmlns="http://www.w3.org/2000/svg" viewBox="0 0 127 41.68">
  <defs>
    <style>
      .cls-1 {
        fill: #bcbec0;
      }

      .cls-2 {
        fill: #060505;
      }
    </style>
  </defs>
  <rect class="cls-1" x="26.5" y="0" width="7.58" height="7.61"/>
  <rect x="26.5" y="7.61" width="7.58" height="7.61"/>
  <rect class="cls-1" x="18.8" y="7.61" width="7.7" height="7.61"/>
  <rect class="cls-1" x="26.5" y="15.24" width="7.58" height="7.6"/>
  <rect class="cls-1" x="34.1" y="34.07" width="7.61" height="7.61"/>
  <g>
    <path class="cls-2" d="M26.5,24.66c0,5.22-4.24,9.45-9.46,9.45-5.22,0-9.45-4.24-9.45-9.46,0-5.21,4.23-9.44,9.44-9.45h1.77v-7.58h-1.77C7.62,7.62,0,15.25,0,24.65c0,9.41,7.63,17.03,17.04,17.03,9.4,0,17.02-7.62,17.03-17.02v-1.83h-7.57v1.83Z"/>
    <path class="cls-2" d="M50.68,9.01v8.27h1.93c.61.01,1.21-.11,1.77-.35.49-.22.94-.54,1.3-.93.35-.38.62-.83.8-1.32.37-.99.37-2.08,0-3.06-.18-.49-.45-.93-.8-1.32-.36-.4-.81-.71-1.3-.93-.56-.24-1.16-.37-1.77-.35h-1.93ZM52.6,7.74c.82-.02,1.63.14,2.38.47.66.29,1.26.7,1.76,1.22.48.5.85,1.09,1.09,1.73.49,1.28.49,2.7,0,3.98-.24.64-.61,1.23-1.09,1.73-.5.52-1.1.93-1.76,1.22-.75.32-1.56.48-2.38.47h-3.33V7.74h3.33Z"/>
    <path class="cls-2" d="M62.92,12.38c-.54-.02-1.07.16-1.48.52-.4.38-.62.92-.6,1.47h4.06c.03-.54-.17-1.07-.56-1.46-.39-.36-.89-.55-1.42-.53M60.82,15.39c0,.29.06.57.15.84.08.25.21.49.38.69.18.21.41.37.66.48.31.13.65.19.99.18.43.03.85-.09,1.2-.33.26-.2.46-.47.58-.78h1.36c-.06.3-.18.59-.34.85-.17.28-.39.52-.65.71-.28.22-.6.38-.94.5-.39.13-.8.19-1.21.19-.53.01-1.06-.09-1.54-.3-.42-.18-.79-.45-1.09-.78-.29-.34-.51-.74-.65-1.17-.14-.46-.22-.94-.21-1.43,0-.5.07-.99.23-1.46.14-.43.37-.83.67-1.18.3-.33.67-.59,1.08-.77.47-.19.97-.29,1.47-.28.44,0,.87.08,1.27.24.39.15.74.38,1.04.67.3.29.53.63.69,1.01.16.39.25.82.24,1.24,0,.1,0,.23,0,.37s-.02.31-.05.51h-5.31Z"/>
    <path class="cls-2" d="M77.21,18.54v-4.03c.04-.52-.1-1.03-.38-1.47-.26-.34-.67-.52-1.1-.5-.49-.02-.96.21-1.25.6-.35.54-.52,1.18-.47,1.83v3.56h-1.35v-3.94c.04-.55-.09-1.09-.38-1.56-.26-.34-.66-.52-1.09-.5-.49-.01-.95.21-1.25.6-.36.54-.53,1.19-.48,1.83v3.56h-1.34v-7.01h1.35v1.25c.14-.4.4-.75.74-1.01.38-.29.85-.44,1.32-.42.53-.03,1.06.11,1.51.41.36.27.62.65.74,1.09.08-.21.19-.4.32-.57.14-.19.31-.35.5-.48.2-.14.42-.25.65-.33.25-.08.51-.13.78-.13.4-.01.8.06,1.18.21.3.13.56.33.77.58.2.26.35.56.42.88.09.35.13.72.13,1.08v4.43h-1.33v.03Z"/>
    <path class="cls-2" d="M83.95,17.51c.65.01,1.28-.26,1.72-.73.21-.23.37-.49.48-.78.11-.31.17-.63.17-.95,0-.33-.06-.65-.17-.96-.11-.29-.27-.56-.48-.78-.21-.23-.46-.41-.75-.54-.31-.14-.64-.2-.98-.2-.34,0-.67.06-.98.2-.28.13-.53.31-.73.54-.2.23-.36.5-.47.78-.11.31-.17.63-.17.96,0,.33.06.65.17.95.21.58.64,1.05,1.21,1.31.31.14.64.21.98.2M83.95,18.71c-.52,0-1.04-.1-1.52-.3-.44-.18-.83-.46-1.15-.81-.65-.7-1.01-1.62-1-2.58,0-.48.09-.96.26-1.41.17-.44.42-.84.74-1.18.32-.34.72-.62,1.15-.8.48-.2,1-.31,1.52-.3.53,0,1.05.1,1.53.3.44.19.84.46,1.17.8.33.34.58.74.75,1.18.18.45.26.93.26,1.41,0,.48-.09.95-.26,1.4-.17.44-.42.84-.75,1.18-.33.34-.73.62-1.17.81-.48.2-1.01.3-1.53.3"/>
    <path class="cls-2" d="M94.41,14.08c-.04-.41-.22-.8-.52-1.09-.4-.33-.91-.49-1.43-.44-.33,0-.65.06-.95.2-.27.13-.5.31-.68.55-.18.24-.32.51-.41.8-.09.3-.14.62-.14.94,0,.32.04.63.13.94.08.29.22.55.41.78.19.23.43.42.7.54.32.14.66.21,1.01.2.46.04.92-.09,1.29-.37.29-.27.5-.62.58-1.01h1.34c-.05.35-.16.7-.32,1.01-.17.31-.39.59-.66.82-.3.24-.64.43-1,.55-.43.14-.89.21-1.35.2-.52.01-1.04-.09-1.51-.31-.42-.2-.79-.48-1.09-.82-.3-.34-.53-.74-.67-1.18-.3-.89-.3-1.86,0-2.75.14-.43.37-.84.67-1.18.3-.35.67-.63,1.09-.83.47-.21.98-.32,1.5-.31.5,0,.99.07,1.46.24.37.14.71.35,1.01.61.26.24.46.54.6.87.14.32.22.66.25,1.01h-1.33v.02Z"/>
    <path class="cls-2" d="M101.99,12.77c-.11-.03-.23-.05-.35-.06-.09,0-.19-.01-.32-.01-.67-.05-1.33.23-1.75.75-.41.59-.61,1.3-.58,2.02v3.06h-1.35v-7h1.35v1.38c.19-.45.52-.82.93-1.07.42-.27.9-.41,1.4-.41.23,0,.45.03.66.11v1.22Z"/>
    <path class="cls-2" d="M106.23,17.51c.34,0,.67-.06.98-.2.28-.13.54-.31.75-.53.21-.23.37-.49.48-.78.23-.62.23-1.29,0-1.91-.11-.29-.27-.56-.48-.78-.21-.23-.46-.41-.75-.54-.31-.14-.64-.2-.98-.2-.34,0-.67.06-.98.2-.28.13-.53.31-.73.54-.63.75-.81,1.77-.47,2.69.11.29.27.55.47.78.21.23.45.41.73.53.31.14.64.21.98.2M109.93,11.53v7.01h-1.33v-1.22c-.23.43-.58.79-1.01,1.02-.44.24-.94.37-1.44.37-.5,0-1-.1-1.46-.3-.43-.19-.81-.46-1.13-.8-.64-.7-1-1.63-.99-2.58,0-.48.09-.96.26-1.41.17-.44.42-.84.73-1.18.32-.34.7-.62,1.13-.81.46-.2.96-.3,1.46-.3.5,0,1,.13,1.44.37.43.23.79.58,1.01,1.02v-1.2h1.33Z"/>
    <path class="cls-2" d="M117.26,14.08c-.04-.41-.22-.8-.52-1.09-.4-.33-.91-.49-1.43-.44-.33,0-.65.06-.95.2-.27.13-.5.31-.68.55-.18.24-.32.51-.41.8-.09.3-.14.62-.14.94,0,.32.04.63.13.94.08.29.22.55.41.78.19.23.43.41.7.54.32.14.66.21,1.01.2.46.04.92-.09,1.29-.37.29-.27.5-.62.58-1.01h1.35c-.05.35-.16.7-.32,1.01-.17.31-.39.59-.66.82-.3.24-.64.43-1,.55-.43.14-.89.21-1.35.2-.52.01-1.04-.09-1.51-.31-.42-.2-.79-.48-1.09-.82-.3-.34-.53-.74-.67-1.18-.3-.89-.3-1.86,0-2.75.14-.43.37-.84.67-1.18.3-.35.67-.63,1.09-.83.47-.21.98-.32,1.5-.31.5,0,.99.07,1.46.24.37.14.71.35,1.01.61.26.24.46.54.6.87.14.32.22.66.25,1.01h-1.33v.02Z"/>
    <path class="cls-2" d="M123.65,22.49c-.85.05-1.7-.22-2.37-.75-.62-.59-.95-1.43-.9-2.28h1.36c0,.53.2,1.04.56,1.43.38.33.88.5,1.38.47.27,0,.55-.03.81-.1.23-.06.44-.18.61-.34.18-.18.32-.4.39-.64.1-.33.15-.66.14-1.01v-1.98c-.2.43-.53.79-.93,1.03-.46.27-.99.4-1.52.38-.44.02-.88-.06-1.29-.23-.33-.15-.62-.38-.84-.67-.2-.27-.33-.58-.41-.9-.09-.42-.12-.85-.12-1.29v-4.09h1.34v3.67c0,.31.03.63.09.93.05.26.15.51.3.73.14.2.33.37.55.48.27.12.57.18.87.17.3,0,.61-.06.88-.19.24-.12.45-.3.61-.53.17-.23.29-.49.36-.76.08-.3.13-.6.13-.91v-3.59h1.35v7.73c.08.9-.23,1.8-.85,2.46-.71.55-1.6.83-2.5.77"/>
    <path class="cls-2" d="M53.07,29.08c.33,0,.65-.06.95-.19.27-.12.52-.3.72-.52.2-.22.36-.48.47-.76.11-.3.17-.61.16-.93,0-.31-.05-.62-.16-.92-.1-.29-.26-.55-.47-.77-.2-.22-.45-.4-.72-.53-.3-.13-.62-.2-.95-.19h-2.4v4.81h2.4ZM49.28,23h3.79c.53,0,1.05.09,1.53.3.88.37,1.57,1.09,1.92,1.98.18.45.26.92.26,1.4,0,.48-.09.96-.26,1.41-.17.44-.42.84-.75,1.18-.33.35-.73.62-1.17.8-.48.2-1,.3-1.53.3h-2.4v3.44h-1.4v-10.82h0Z"/>
  </g>
  <rect class="cls-2" x="58.47" y="23" width="1.35" height="10.8"/>
  <g>
    <path class="cls-2" d="M68.53,26.79v7.01h-1.35v-1.25c-.21.43-.54.79-.95,1.04-.46.27-.99.4-1.52.38-.44,0-.87-.07-1.27-.24-.34-.14-.63-.38-.84-.67-.2-.27-.33-.57-.41-.89-.08-.41-.12-.82-.12-1.24v-4.13h1.35v3.7c0,.31.03.61.09.91.05.26.15.5.3.72.14.2.32.37.54.48.26.13.54.19.83.18.31,0,.61-.06.89-.19.25-.12.46-.3.63-.53.17-.23.29-.49.37-.76.08-.3.13-.6.13-.91v-3.59h1.34Z"/>
    <path class="cls-2" d="M73.9,29.9c.27.08.53.17.78.27.24.08.47.2.67.36.2.14.36.33.47.54.13.25.19.54.18.82,0,.32-.06.63-.21.92-.14.26-.34.48-.58.66-.26.18-.56.32-.87.39-.35.09-.72.14-1.09.13-.38,0-.75-.05-1.11-.15-.33-.09-.65-.26-.92-.47-.27-.21-.49-.48-.64-.79-.17-.35-.25-.73-.24-1.11h1.3c-.05.43.13.86.47,1.13.35.23.76.35,1.18.33.36.02.71-.07,1.03-.24.25-.17.4-.46.38-.76,0-.17-.05-.34-.15-.47-.13-.13-.28-.24-.44-.32-.23-.1-.46-.19-.7-.25-.28-.07-.59-.18-.94-.3-.27-.08-.52-.17-.75-.26-.22-.09-.42-.21-.6-.36-.17-.14-.31-.32-.4-.53-.21-.54-.19-1.14.05-1.66.13-.25.32-.47.55-.64.25-.18.54-.31.83-.38.33-.09.68-.14,1.02-.13.36,0,.72.06,1.07.17.32.1.61.27.86.49.24.21.43.46.57.75.14.3.21.62.21.95h-1.29c.03-.35-.11-.7-.36-.95-.3-.24-.68-.36-1.06-.33-.33-.01-.65.07-.92.24-.25.16-.39.43-.37.72,0,.15.04.31.13.43.11.13.24.23.39.3.2.09.41.17.63.24.24.08.52.17.86.27"/>
  </g>
</svg>