<?xml version="1.0" encoding="UTF-8"?>
<svg id="Layer_1" data-name="Layer 1" xmlns="http://www.w3.org/2000/svg" viewBox="0 0 330 98">
  <path d="M305.22,72.23c-9.28,6.94-35.08,6.74-46.04,3.84-5.32-1.41-11.51-4.02-13.42-9.58-.39-1.13-1.91-6.14-.48-6.44l23.21-.05c.24,5.96,8.11,6.48,12.7,5.95,5.97-.69,9.96-5.79,3.4-9.29-9.28-2.76-24-1.8-32.37-6.13-7.48-3.87-8.87-15.52-3.93-21.98,8.3-10.86,44.4-9.81,54.67-2.25,3.2,2.36,7.03,7.98,5.56,11.98l-21.7.15c-1.15-.39-.69-4.58-5.54-5.95-2.24-.63-9.14-.89-11.3-.25-3.64,1.08-5.35,5.62-1.21,7.26,2.28.9,7.35,1.53,10.04,1.96,9.92,1.62,30.16,1.24,32.47,14.03,1.18,6.5-.74,12.78-6.05,16.75Z"/>
  <path d="M75.5,22.5v11.75l-.75.75h-33.25c-.75,2.58-.76,5.41,0,8h33.25l.75.75v11.75h-34c-.5,2.37-1.23,5.97.25,8h33l.75.75v10.5c0,.18.89.55-.25,1.25H22.75l-.64-.75c-.01-.2.39-.38.39-.5V22.5h53Z"/>
  <path d="M106.75,22.5c1.82,1.43,7.75,10.51,9.5,10.52,1.35,0,7.87-9.18,9.5-10.52h24.25l-21.47,26.75,21.47,26.75h-24.25l-8.99-10.55c-1.06.02-1.34.42-2.03,1.03-2.62,2.28-5.26,7.05-7.97,9.53h-24.25l21.51-26.27c.09-.86-.35-1.53-.79-2.21-3.06-4.7-9.41-10.84-13.2-15.42-2.58-3.12-5.18-6.29-7.53-9.6h24.25Z"/>
  <path d="M210,22.5c.97,3.94-.75,7.82.38,11.77l-.63.73h-33c-1.48,2.03-.75,5.63-.25,8h33.25l.63.73.12,11.77h-33.75l-.75.75v19.75h-18.75l-.64-.75c-.01-.2.39-.38.39-.5V22.5h53Z"/>
  <polygon points="238.5 76 219 76 219 22.5 237.75 22.5 238.5 23.25 238.5 76"/>
</svg>