<?xml version="1.0" encoding="UTF-8"?>
<svg id="Layer_1" data-name="Layer 1" xmlns="http://www.w3.org/2000/svg" viewBox="0 0 917 447">
  <polygon points="647 102.5 618.5 285.5 660.5 285.5 690.25 102.5 744.25 102.5 728 208.5 769.75 208.5 787.5 102.5 840.5 102.5 814.95 265.45 719.47 265.72 706.75 340.5 554.5 340.5 594.25 102.5 647 102.5"/>
  <path d="M377,250c4.99,19.8,20.18,38.97,40.5,44.25,13.52,3.51,29.26.63,42.13-4.36,11.13-4.32,21.38-11.45,28.17-21.34l46.18,26.17c-34.41,35.9-77.17,69.72-130.49,59.54-76.03-14.51-94.58-100.79-69.23-164.74,26.54-66.95,107.71-124.02,178.57-84.6,49.33,27.44,54.16,83.14,43.01,133.68-.84,3.81-1.68,7.9-3.09,11.41h-175.75ZM506.5,200c-.52-33.66-33.91-54.57-65.52-48.27-20.88,4.16-40.82,22.79-51.39,40.61-1.37,2.32-3.19,5.06-3.6,7.65h120.5Z"/>
  <polygon points="78.5 340.5 121.24 89.49 254.26 229.49 275.75 102.5 328.5 102.5 286.26 351.51 284.99 351.76 152.75 209.5 130.5 340.5 78.5 340.5"/>
</svg>