<?xml version="1.0" encoding="UTF-8"?>
<svg id="Logo_Main" data-name="Logo Main" xmlns="http://www.w3.org/2000/svg" viewBox="0 0 634.69 73.7">
  <defs>
    <style>
      .cls-1 {
        fill: #060506;
      }
    </style>
  </defs>
  <g>
    <path class="cls-1" d="M307.1,12.5c5.9,0,8.89,4.65,8.89,9.72s-2.99,9.72-8.89,9.72-8.89-4.65-8.89-9.72,2.99-9.72,8.89-9.72ZM307.1,29.87c4.52,0,6.42-3.9,6.42-7.64s-1.9-7.64-6.42-7.64-6.42,3.9-6.42,7.64,1.9,7.64,6.42,7.64Z"/>
    <path class="cls-1" d="M318.56,18.07h2.08v2.83h.05c1.07-2.18,2.55-3.22,4.94-3.15v2.34c-3.56,0-4.86,2-4.86,5.43v5.98h-2.21v-13.44Z"/>
    <path class="cls-1" d="M339.02,30.37c0,4.39-1.98,6.6-6.24,6.6-2.52,0-5.43-1.04-5.56-3.95h2.21c.08,1.59,2.05,2.18,3.48,2.18,2.89,0,4.03-2.08,4.03-5.1v-.88h-.05c-.75,1.64-2.47,2.44-4.19,2.44-4,0-6.01-3.15-6.01-6.81,0-3.17,1.53-7.1,6.21-7.1,1.69,0,3.2.75,4,2.24h.03v-1.92h2.08v12.3ZM336.84,24.52c0-2.37-1.04-4.81-3.82-4.81s-3.98,2.31-3.98,4.89c0,2.42.88,5.12,3.8,5.12s4-2.68,4-5.2Z"/>
    <path class="cls-1" d="M354.39,31.46c-.39.23-.94.36-1.59.36-1.14,0-1.87-.62-1.87-2.08-1.22,1.46-2.86,2.08-4.73,2.08-2.44,0-4.45-1.07-4.45-3.77,0-3.04,2.26-3.72,4.55-4.13,2.42-.49,4.52-.29,4.52-1.98,0-1.95-1.61-2.24-2.99-2.24-1.87,0-3.25.57-3.35,2.55h-2.21c.13-3.33,2.68-4.5,5.69-4.5,2.42,0,5.04.55,5.04,3.69v6.92c0,1.04,0,1.51.7,1.51.21,0,.44-.05.68-.13v1.72ZM350.8,24.57c-1.72,1.27-6.71.03-6.71,3.33,0,1.46,1.25,1.98,2.6,1.98,2.91,0,4.11-1.8,4.11-3.04v-2.26Z"/>
    <path class="cls-1" d="M356.44,18.07h2.08v2.13h.05c.94-1.66,2.42-2.44,4.37-2.44,3.54,0,4.63,2.03,4.63,4.91v8.84h-2.21v-9.1c0-1.66-1.04-2.7-2.73-2.7-2.68,0-3.98,1.79-3.98,4.21v7.59h-2.21v-13.44Z"/>
    <path class="cls-1" d="M373.24,15.65h-2.21v-2.7h2.21v2.7ZM371.03,18.07h2.21v13.44h-2.21v-13.44Z"/>
    <path class="cls-1" d="M375.58,29.82l8.11-9.8h-7.59v-1.95h10.45v1.51l-8.22,9.98h8.58v1.95h-11.34v-1.69Z"/>
    <path class="cls-1" d="M401.06,31.46c-.39.23-.94.36-1.59.36-1.14,0-1.87-.62-1.87-2.08-1.22,1.46-2.86,2.08-4.73,2.08-2.44,0-4.45-1.07-4.45-3.77,0-3.04,2.26-3.72,4.55-4.13,2.42-.49,4.52-.29,4.52-1.98,0-1.95-1.61-2.24-2.99-2.24-1.87,0-3.25.57-3.35,2.55h-2.21c.13-3.33,2.68-4.5,5.69-4.5,2.42,0,5.04.55,5.04,3.69v6.92c0,1.04,0,1.51.7,1.51.21,0,.44-.05.68-.13v1.72ZM397.47,24.57c-1.72,1.27-6.71.03-6.71,3.33,0,1.46,1.25,1.98,2.6,1.98,2.91,0,4.11-1.8,4.11-3.04v-2.26Z"/>
    <path class="cls-1" d="M406.18,18.07h2.68v1.95h-2.68v8.35c0,1.04.29,1.2,1.66,1.2h1.01v1.95h-1.69c-2.29,0-3.2-.47-3.2-2.94v-8.55h-2.29v-1.95h2.29v-4.03h2.21v4.03Z"/>
    <path class="cls-1" d="M413.64,15.65h-2.21v-2.7h2.21v2.7ZM411.43,18.07h2.21v13.44h-2.21v-13.44Z"/>
    <path class="cls-1" d="M422.87,17.75c4.26,0,6.53,3.09,6.53,7.05s-2.26,7.02-6.53,7.02-6.53-3.09-6.53-7.02,2.26-7.05,6.53-7.05ZM422.87,29.87c2.31,0,4.19-1.82,4.19-5.07s-1.87-5.1-4.19-5.1-4.19,1.85-4.19,5.1,1.87,5.07,4.19,5.07Z"/>
    <path class="cls-1" d="M432,18.07h2.08v2.13h.05c.94-1.66,2.42-2.44,4.37-2.44,3.54,0,4.63,2.03,4.63,4.91v8.84h-2.21v-9.1c0-1.66-1.04-2.7-2.73-2.7-2.68,0-3.98,1.79-3.98,4.21v7.59h-2.21v-13.44Z"/>
    <path class="cls-1" d="M454.59,20.02h-2.26v-1.95h2.26v-2c0-2.18,1.3-3.33,3.72-3.33.42,0,1.01.08,1.43.21v1.92c-.39-.13-.86-.18-1.25-.18-1.07,0-1.69.34-1.69,1.51v1.87h2.6v1.95h-2.6v11.49h-2.21v-11.49Z"/>
    <path class="cls-1" d="M467.17,17.75c4.26,0,6.53,3.09,6.53,7.05s-2.26,7.02-6.53,7.02-6.53-3.09-6.53-7.02,2.26-7.05,6.53-7.05ZM467.17,29.87c2.31,0,4.19-1.82,4.19-5.07s-1.87-5.1-4.19-5.1-4.19,1.85-4.19,5.1,1.87,5.07,4.19,5.07Z"/>
    <path class="cls-1" d="M476.22,18.07h2.08v2.83h.05c1.07-2.18,2.55-3.22,4.94-3.15v2.34c-3.56,0-4.86,2-4.86,5.43v5.98h-2.21v-13.44Z"/>
    <path class="cls-1" d="M503.29,18.38c-.29-2.68-2.03-3.8-4.6-3.8-2.11,0-4.16.75-4.16,3.17,0,4.58,11.88,1.35,11.88,8.66,0,3.95-3.87,5.54-7.25,5.54-4.16,0-7.67-2.05-7.67-6.55h2.34c0,3.12,2.6,4.47,5.41,4.47,2.24,0,4.71-.7,4.71-3.38,0-5.1-11.88-1.74-11.88-8.55,0-3.74,3.33-5.43,6.73-5.43,3.8,0,6.71,1.79,6.84,5.88h-2.34Z"/>
    <path class="cls-1" d="M520.5,27.24c-.6,2.99-2.7,4.58-5.75,4.58-4.29,0-6.32-2.99-6.45-7.07,0-4.06,2.65-6.99,6.32-6.99,4.76,0,6.21,4.45,6.09,7.7h-10.06c-.08,2.34,1.25,4.42,4.19,4.42,1.85,0,3.09-.86,3.48-2.63h2.18ZM518.37,23.5c-.13-2.11-1.66-3.8-3.87-3.8s-3.72,1.72-3.85,3.8h7.72Z"/>
    <path class="cls-1" d="M532.12,22.38c-.34-1.69-1.48-2.68-3.33-2.68-3.2,0-4.19,2.55-4.19,5.25,0,2.5,1.12,4.91,3.93,4.91,2.16,0,3.41-1.22,3.69-3.28h2.26c-.49,3.3-2.52,5.23-5.93,5.23-4.11,0-6.29-2.83-6.29-6.86s2.08-7.2,6.34-7.2c3.07,0,5.46,1.43,5.8,4.63h-2.29Z"/>
    <path class="cls-1" d="M548.08,31.51h-2.08v-2.13h-.05c-.94,1.66-2.42,2.44-4.37,2.44-3.54,0-4.63-2.03-4.63-4.91v-8.84h2.21v9.1c0,1.66,1.04,2.7,2.73,2.7,2.68,0,3.98-1.8,3.98-4.21v-7.59h2.21v13.44Z"/>
    <path class="cls-1" d="M551.33,18.07h2.08v2.83h.05c1.07-2.18,2.55-3.22,4.94-3.15v2.34c-3.56,0-4.86,2-4.86,5.43v5.98h-2.21v-13.44Z"/>
    <path class="cls-1" d="M562.41,15.65h-2.21v-2.7h2.21v2.7ZM560.2,18.07h2.21v13.44h-2.21v-13.44Z"/>
    <path class="cls-1" d="M568.91,18.07h2.68v1.95h-2.68v8.35c0,1.04.29,1.2,1.66,1.2h1.01v1.95h-1.69c-2.29,0-3.2-.47-3.2-2.94v-8.55h-2.29v-1.95h2.29v-4.03h2.21v4.03Z"/>
    <path class="cls-1" d="M579.31,33.3c-1.04,2.6-1.92,3.59-3.9,3.59-.52,0-1.04-.05-1.53-.23v-2.03c.42.13.86.31,1.3.31.91,0,1.4-.42,1.82-1.22l.91-2.29-5.33-13.36h2.5l3.93,11h.05l3.77-11h2.34l-5.85,15.24Z"/>
    <path class="cls-1" d="M606.17,31.46c-.39.23-.94.36-1.59.36-1.14,0-1.87-.62-1.87-2.08-1.22,1.46-2.86,2.08-4.73,2.08-2.44,0-4.45-1.07-4.45-3.77,0-3.04,2.26-3.72,4.55-4.13,2.42-.49,4.52-.29,4.52-1.98,0-1.95-1.61-2.24-2.99-2.24-1.87,0-3.25.57-3.35,2.55h-2.21c.13-3.33,2.68-4.5,5.69-4.5,2.42,0,5.04.55,5.04,3.69v6.92c0,1.04,0,1.51.7,1.51.21,0,.44-.05.68-.13v1.72ZM602.58,24.57c-1.72,1.27-6.71.03-6.71,3.33,0,1.46,1.25,1.98,2.6,1.98,2.91,0,4.11-1.8,4.11-3.04v-2.26Z"/>
    <path class="cls-1" d="M608.22,18.07h2.08v2.13h.05c.94-1.66,2.42-2.44,4.37-2.44,3.54,0,4.63,2.03,4.63,4.91v8.84h-2.21v-9.1c0-1.66-1.04-2.7-2.73-2.7-2.68,0-3.98,1.79-3.98,4.21v7.59h-2.21v-13.44Z"/>
    <path class="cls-1" d="M634.69,31.51h-2.21v-1.82h-.05c-.73,1.48-2.42,2.13-4.29,2.13-4.13,0-6.19-3.28-6.19-7.07s2.03-6.99,6.14-6.99c1.35,0,3.38.52,4.34,2.11h.05v-6.92h2.21v18.56ZM628.45,29.87c2.99,0,4.11-2.57,4.11-5.07,0-2.63-1.2-5.1-4.24-5.1s-4.03,2.57-4.03,5.2,1.3,4.97,4.16,4.97Z"/>
    <path class="cls-1" d="M312.3,45.94c-.55-2.63-2.6-3.95-5.2-3.95-4.42,0-6.29,3.64-6.29,7.51,0,4.24,1.87,7.77,6.32,7.77,3.22,0,5.15-2.29,5.36-5.36h2.47c-.49,4.65-3.33,7.44-8.03,7.44-5.75,0-8.58-4.26-8.58-9.67s3.07-9.78,8.79-9.78c3.87,0,7.1,2.08,7.64,6.03h-2.47Z"/>
    <path class="cls-1" d="M323.45,45.15c4.26,0,6.53,3.09,6.53,7.05s-2.26,7.02-6.53,7.02-6.53-3.09-6.53-7.02,2.26-7.05,6.53-7.05ZM323.45,57.27c2.31,0,4.19-1.82,4.19-5.07s-1.87-5.1-4.19-5.1-4.19,1.85-4.19,5.1,1.87,5.07,4.19,5.07Z"/>
    <path class="cls-1" d="M332.21,50.64h7.51v2.08h-7.51v-2.08Z"/>
    <path class="cls-1" d="M348.49,45.15c4.26,0,6.53,3.09,6.53,7.05s-2.26,7.02-6.53,7.02-6.53-3.09-6.53-7.02,2.26-7.05,6.53-7.05ZM348.49,57.27c2.31,0,4.19-1.82,4.19-5.07s-1.87-5.1-4.19-5.1-4.19,1.85-4.19,5.1,1.87,5.07,4.19,5.07Z"/>
    <path class="cls-1" d="M357.69,45.47h2.21v1.82h.05c.73-1.48,2.42-2.13,4.29-2.13,4.13,0,6.19,3.28,6.19,7.07s-2.03,6.99-6.14,6.99c-1.35,0-3.38-.52-4.34-2.11h-.05v6.94h-2.21v-18.59ZM363.93,47.11c-2.99,0-4.11,2.57-4.11,5.07,0,2.63,1.2,5.1,4.24,5.1s4.03-2.57,4.03-5.2-1.3-4.97-4.16-4.97Z"/>
    <path class="cls-1" d="M384.5,54.65c-.6,2.99-2.7,4.58-5.75,4.58-4.29,0-6.32-2.99-6.45-7.07,0-4.06,2.65-6.99,6.32-6.99,4.76,0,6.21,4.45,6.08,7.7h-10.06c-.08,2.34,1.25,4.42,4.19,4.42,1.85,0,3.09-.86,3.48-2.63h2.18ZM382.36,50.9c-.13-2.11-1.66-3.8-3.87-3.8s-3.72,1.72-3.85,3.8h7.72Z"/>
    <path class="cls-1" d="M386.91,45.47h2.08v2.83h.05c1.07-2.18,2.55-3.22,4.94-3.15v2.34c-3.56,0-4.86,2-4.86,5.43v5.98h-2.21v-13.44Z"/>
    <path class="cls-1" d="M407.56,58.86c-.39.23-.94.36-1.59.36-1.14,0-1.87-.62-1.87-2.08-1.22,1.46-2.86,2.08-4.73,2.08-2.44,0-4.45-1.07-4.45-3.77,0-3.04,2.26-3.72,4.55-4.13,2.42-.49,4.52-.29,4.52-1.98,0-1.95-1.61-2.24-2.99-2.24-1.87,0-3.25.57-3.35,2.55h-2.21c.13-3.33,2.68-4.5,5.69-4.5,2.42,0,5.04.55,5.04,3.69v6.92c0,1.04,0,1.51.7,1.51.21,0,.44-.05.68-.13v1.72ZM403.97,51.97c-1.72,1.27-6.71.03-6.71,3.33,0,1.46,1.25,1.98,2.6,1.98,2.91,0,4.11-1.79,4.11-3.04v-2.26Z"/>
    <path class="cls-1" d="M412.68,45.47h2.68v1.95h-2.68v8.35c0,1.04.29,1.2,1.66,1.2h1.01v1.95h-1.69c-2.29,0-3.2-.47-3.2-2.94v-8.55h-2.29v-1.95h2.29v-4.03h2.21v4.03Z"/>
    <path class="cls-1" d="M420.14,43.05h-2.21v-2.7h2.21v2.7ZM417.93,45.47h2.21v13.44h-2.21v-13.44Z"/>
    <path class="cls-1" d="M429.37,45.15c4.26,0,6.53,3.09,6.53,7.05s-2.26,7.02-6.53,7.02-6.53-3.09-6.53-7.02,2.26-7.05,6.53-7.05ZM429.37,57.27c2.31,0,4.19-1.82,4.19-5.07s-1.87-5.1-4.19-5.1-4.19,1.85-4.19,5.1,1.87,5.07,4.19,5.07Z"/>
    <path class="cls-1" d="M438.5,45.47h2.08v2.13h.05c.94-1.66,2.42-2.44,4.37-2.44,3.54,0,4.63,2.03,4.63,4.91v8.84h-2.21v-9.1c0-1.66-1.04-2.7-2.73-2.7-2.68,0-3.98,1.79-3.98,4.21v7.59h-2.21v-13.44Z"/>
    <path class="cls-1" d="M462.52,43.05h-2.21v-2.7h2.21v2.7ZM460.31,45.47h2.21v13.44h-2.21v-13.44Z"/>
    <path class="cls-1" d="M465.95,45.47h2.08v2.13h.05c.94-1.66,2.42-2.44,4.37-2.44,3.54,0,4.63,2.03,4.63,4.91v8.84h-2.21v-9.1c0-1.66-1.04-2.7-2.73-2.7-2.68,0-3.98,1.79-3.98,4.21v7.59h-2.21v-13.44Z"/>
    <path class="cls-1" d="M488,40.35h12.82v2.08h-10.35v5.9h9.65v2.08h-9.65v6.42h10.43v2.08h-12.9v-18.56Z"/>
    <path class="cls-1" d="M514.65,58.91h-2.08v-2.13h-.05c-.94,1.66-2.42,2.44-4.37,2.44-3.54,0-4.63-2.03-4.63-4.91v-8.84h2.21v9.1c0,1.66,1.04,2.7,2.73,2.7,2.68,0,3.98-1.79,3.98-4.21v-7.59h2.21v13.44Z"/>
    <path class="cls-1" d="M517.9,45.47h2.08v2.83h.05c1.07-2.18,2.55-3.22,4.94-3.15v2.34c-3.56,0-4.86,2-4.86,5.43v5.98h-2.21v-13.44Z"/>
    <path class="cls-1" d="M532.43,45.15c4.26,0,6.53,3.09,6.53,7.05s-2.26,7.02-6.53,7.02-6.53-3.09-6.53-7.02,2.26-7.05,6.53-7.05ZM532.43,57.27c2.31,0,4.19-1.82,4.19-5.07s-1.87-5.1-4.19-5.1-4.19,1.85-4.19,5.1,1.87,5.07,4.19,5.07Z"/>
    <path class="cls-1" d="M541.64,45.47h2.21v1.82h.05c.73-1.48,2.42-2.13,4.29-2.13,4.13,0,6.19,3.28,6.19,7.07s-2.03,6.99-6.14,6.99c-1.35,0-3.38-.52-4.34-2.11h-.05v6.94h-2.21v-18.59ZM547.88,47.11c-2.99,0-4.11,2.57-4.11,5.07,0,2.63,1.2,5.1,4.24,5.1s4.03-2.57,4.03-5.2-1.3-4.97-4.16-4.97Z"/>
    <path class="cls-1" d="M568.44,54.65c-.6,2.99-2.7,4.58-5.75,4.58-4.29,0-6.32-2.99-6.45-7.07,0-4.06,2.65-6.99,6.32-6.99,4.76,0,6.21,4.45,6.08,7.7h-10.06c-.08,2.34,1.25,4.42,4.19,4.42,1.85,0,3.09-.86,3.48-2.63h2.18ZM566.31,50.9c-.13-2.11-1.66-3.8-3.87-3.8s-3.72,1.72-3.85,3.8h7.72Z"/>
  </g>
  <g>
    <path class="cls-1" d="M252.63,14.7c-4.2,0-7.58,1.42-10.15,4.25-2.57,2.83-3.87,7.31-3.9,13.43,1.04.13,3.01.27,5.91.4,5.54.17,9.35.25,11.44.25,4.94,0,8.19-.08,9.75-.25.04-.85.06-1.49.06-1.95,0-5.55-1.19-9.62-3.57-12.23-2.38-2.6-5.56-3.9-9.54-3.9Z"/>
    <path class="cls-1" d="M217.72,0v73.7h68.03V0h-68.03ZM275.57,34.92c-2.67.45-5.05.73-7.17.86-4,.25-8,.38-11.99.38h-17.83c.07,4.92.98,8.91,2.74,11.96,1.75,3.05,4.17,5.29,7.26,6.74,3.08,1.45,6.29,2.16,9.61,2.16,2.25,0,4.49-.33,6.73-1.01,2.23-.67,4.99-1.91,8.28-3.71l.88.88-1.77,3.7c-2.54,1.48-4.4,2.46-5.57,2.94-1.73.72-3.71,1.34-5.93,1.83-2.22.49-4.57.75-7.04.75-4.86,0-9.26-.94-13.19-2.83-3.94-1.89-7-4.71-9.19-8.47-2.19-3.76-3.29-8.16-3.29-13.2,0-3.95.58-7.5,1.74-10.68,1.16-3.17,2.48-5.52,3.96-7.03,1.07-1.1,2.73-2.36,4.98-3.78,2.25-1.42,4.48-2.55,6.7-3.37,2.91-1.13,6.06-1.7,9.46-1.7,4.13,0,7.86.88,11.2,2.63,3.34,1.76,5.78,4.15,7.33,7.18,1.55,3.03,2.33,6.45,2.33,10.27,0,.97-.07,2.14-.21,3.51Z"/>
  </g>
  <path class="cls-1" d="M145.14,0v73.7h68.03V0h-68.03ZM169.94,46.2c1.75,3.76,4.14,6.5,7.16,8.23,3.02,1.73,6.39,2.59,10.13,2.59,1.86,0,3.68-.21,5.46-.64,1.78-.43,4.05-1.25,6.83-2.45l1.15,1.34-2.2,3.44c-2.54,1.28-5.04,2.21-7.52,2.8-2.48.58-5.28.88-8.4.88-7.71,0-13.86-2.17-18.43-6.51-4.57-4.34-6.86-10.29-6.86-17.87,0-4.01.62-7.5,1.84-10.46,1.23-2.96,2.75-5.25,4.55-6.86,1.21-1.13,3.52-2.59,6.91-4.39s5.77-2.96,7.14-3.47c2.5-.99,5.49-1.49,8.98-1.49,3.3,0,6.28.32,8.92.96,1.69.4,3.38,1.08,5.07,2.02-.46,2.63-.78,4.62-.97,5.96-.19,1.35-.44,3.8-.74,7.35h-3.21c-.22-3.25-.44-5.29-.66-6.1-.15-.5-.47-.96-.98-1.36-1.31-.94-2.99-1.75-5.05-2.44-2.06-.69-4.3-1.03-6.74-1.03-3.06,0-5.7.59-7.94,1.77-2.24,1.18-3.98,3.05-5.22,5.61-1.24,2.56-1.85,5.74-1.85,9.53,0,4.65.88,8.85,2.63,12.61Z"/>
  <path class="cls-1" d="M72.57,0v73.7h68.03V0h-68.03ZM120.27,57.23c-4.08,3.43-9.55,5.15-16.4,5.15-3.15,0-7.34-.45-12.58-1.35-2.89-.52-4.45-.88-4.67-1.08-.15-.1-.22-.28-.22-.52s.04-.53.11-.87c.34-1.47.56-2.9.67-4.31.11-1.4.21-4.32.28-8.77h3.21c.03,1.97.14,3.53.33,4.69.18,1.15.49,2.29.93,3.39.44,1.1,1.11,2.04,2.03,2.8.91.76,1.91,1.36,2.98,1.79,1.08.42,2.17.71,3.29.84,1.11.13,2.8.2,5.06.2,3.72,0,6.78-.92,9.17-2.76,2.39-1.84,3.58-4.36,3.58-7.56,0-1.43-.38-2.69-1.13-3.78-.76-1.09-1.84-1.94-3.25-2.55-1.42-.61-4.46-1.41-9.12-2.4-4.67-.99-7.68-1.7-9.04-2.15-2.06-.71-3.7-1.58-4.91-2.6-1.21-1.02-2.18-2.31-2.89-3.88-.72-1.57-1.08-3.27-1.08-5.11,0-2.69.77-5.17,2.3-7.43,1.54-2.27,3.95-4.1,7.25-5.52,3.29-1.41,6.88-2.12,10.77-2.12,2.33,0,5.03.29,8.11.86,3.07.57,5.57,1.28,7.5,2.12-.1,3.84-.17,7.75-.21,11.72h-3.21c-.19-2.5-.4-4.15-.64-4.93-.24-.79-.56-1.49-.97-2.11-.41-.61-1.11-1.28-2.11-1.98-1-.7-2.28-1.33-3.85-1.88-1.57-.55-3.5-.82-5.79-.82-3.25,0-5.87.89-7.84,2.67-1.98,1.78-2.96,3.86-2.96,6.25,0,1.33.28,2.48.85,3.44.56.96,1.32,1.74,2.27,2.33.95.6,2.28,1.13,3.99,1.61l9.08,2.1c4.59,1.09,7.75,2.03,9.49,2.82,1.73.79,3.12,2.01,4.18,3.67,1.05,1.65,1.59,3.65,1.59,5.97,0,4.61-2.04,8.64-6.12,12.07Z"/>
  <g>
    <path class="cls-1" d="M41.49,16.97c-2.63-1.64-5.51-2.47-8.66-2.47-4.5,0-8.13,1.54-10.91,4.63-2.77,3.08-4.16,7.88-4.16,14.4,0,4.27.74,8.6,2.22,13,1.48,4.4,3.64,7.62,6.46,9.64,2.83,2.03,5.89,3.04,9.19,3.04,4.2,0,7.72-1.59,10.57-4.78,2.85-3.19,4.27-8.09,4.27-14.71,0-5.51-.84-10.26-2.53-14.27-1.69-4-3.84-6.83-6.46-8.47Z"/>
    <path class="cls-1" d="M0,0v73.7h68.03V0H0ZM56.88,49.28c-2.44,4.16-5.88,7.42-10.31,9.77-4.43,2.35-9.33,3.53-14.68,3.53-4.18,0-7.71-.67-10.59-2.01-2.88-1.34-5.22-3.03-7.01-5.05-1.79-2.03-3.15-4.11-4.07-6.24-1.66-3.75-2.49-7.75-2.49-12.01,0-7.7,2.56-13.98,7.68-18.85,5.12-4.86,11.67-7.29,19.65-7.29,7.54,0,13.67,2.27,18.4,6.81,4.73,4.54,7.09,10.39,7.09,17.58,0,5.02-1.22,9.61-3.66,13.77Z"/>
  </g>
</svg>