<?xml version="1.0" encoding="UTF-8"?>
<svg id="Layer_1" data-name="Layer 1" xmlns="http://www.w3.org/2000/svg" viewBox="0 0 247 309">
  <defs>
    <style>
      .cls-1 {
        fill: #1034a6;
      }

      .cls-2 {
        fill: #f99a39;
      }

      .cls-3 {
        fill: #050405;
      }
    </style>
  </defs>
  <path class="cls-2" d="M246.95,123.4h-111.1c-6.8,0-12.3,5.5-12.3,12.3v111.1l123.4-123.4Z"/>
  <path class="cls-1" d="M123.45,173c-.1,4.4-2.5,8.3-6.1,10.4l6.1,63.4v-73.8Z"/>
  <path class="cls-1" d="M246.15,123.4l-62.6-6.4c-2.1,3.8-6.8,6.4-11.5,6.4h74.1Z"/>
  <path class="cls-3" d="M234.55,0H.05v234.5c0,6.8,5.5,12.3,12.3,12.3h111.1l-6.1-63.4c-.6.4-1.3.7-2,.9-.1,0-.2.1-.3.1-.2.1-.4.1-.6.2-.2.1-.5.1-.7.2-.2,0-.3.1-.5.1-.3.1-.5.1-.8.1h-.3c-.4,0-.7.1-1.1.1h-37c-.5,0-1,0-1.4-.1-.1,0-.3,0-.4-.1-.3,0-.6-.1-1-.2-.2,0-.3-.1-.5-.1-.3-.1-.6-.2-.9-.3-.1-.1-.3-.1-.4-.2-.4-.2-.8-.4-1.2-.6-.7-.4-1.4-.8-2-1.3-.3-.3-.6-.5-.9-.8-.1-.1-.2-.2-.3-.3-.2-.2-.4-.4-.6-.6-.1-.1-.2-.3-.3-.4-.2-.2-.3-.4-.4-.6-.1-.1-.2-.3-.3-.4-.1-.2-.3-.4-.4-.7-.1-.2-.2-.3-.2-.5-.1-.2-.2-.5-.3-.7s-.1-.3-.2-.5c-.1-.3-.2-.5-.2-.8,0-.2-.1-.3-.1-.5-.1-.3-.1-.6-.2-.9,0-.1,0-.3-.1-.4,0-.4-.1-.9-.1-1.3V61.7h111.1c6.8,0,12.3,5.5,12.3,12.3v37c0,.5,0,1-.1,1.5-.2,1.6-.7,3.2-1.5,4.5l63.3,6.3V12.3C246.95,5.5,241.35,0,234.55,0Z"/>
  <path class="cls-3" d="M228.15,278.6c0-2.1,1.9-3.9,5.4-3.9s5.8,1.8,5.9,4.5c0,.3.2.4.4.4h5.2c.2,0,.4-.2.5-.4.3-5.8-5.5-8.7-11.6-8.7-8,0-12.3,4.3-12.3,8.8,0,9.6,15.7,6.9,15.7,12.2,0,2.2-1.8,3.9-5.4,3.9-4.4,0-7.1-2-7-5.4,0-.2-.2-.4-.4-.4h-5.5c-.2,0-.5.2-.5.4-.6,5.9,5.1,9.7,12.9,9.7s12.3-4,12.3-9.4c.1-9.2-15.6-6.5-15.6-11.7ZM195.55,299c.2,0,.5-.2.5-.4l2.5-11.4.8-3c1.7-5.8,5.1-8.5,8.3-8.5s5.2,2.1,4.2,6l-1.2,5.6-2.8,11.4c-.1.2.1.4.3.4h5.7c.2,0,.5-.2.5-.4l2.5-11.4,1.2-5.7c1.6-7-1.9-10.9-7.9-10.9-3.7,0-7,2.1-9.3,4.7l1-3.6c.1-.2-.1-.4-.3-.4h-5.5c-.3,0-.5.2-.5.4l-3.2,14.3-3.1,12.7c-.1.2.1.4.3.4h6v-.2ZM168.85,288.4c0-8.1,3.6-13.3,9-13.3,3.7,0,5.9,2.4,5.9,6.8,0,8.1-3.6,13.1-9,13.1-3.8.1-5.9-2.2-5.9-6.6ZM162.25,287.9c0,7.3,5.1,11.7,12.3,11.7,9.3,0,15.8-7.6,15.8-17.5,0-7.2-4.9-11.7-12.2-11.7-9.3.1-15.9,7.4-15.9,17.5ZM156.25,299c.2,0,.5-.2.5-.4l3-13.7,3.2-13.3c.1-.2-.1-.4-.3-.4h-5.8c-.2,0-.5.2-.5.4l-2.9,13.3-3.3,13.7c-.1.2.1.4.3.4h5.8ZM163.35,268.3c.2,0,.5-.2.5-.4l1.2-5.6c.1-.2-.1-.4-.3-.4h-5.7c-.2,0-.5.2-.5.4l-1.2,5.6c-.1.2.1.4.3.4h5.7ZM148.75,294.5c.1-.2-.1-.4-.3-.3-.9.2-1.9.4-3.1.4-2.1,0-3.1-.9-2.4-3.7l3.4-14.9h6.4c.2,0,.5-.2.5-.4l.9-4c.1-.2-.1-.4-.3-.4h-6.3l1.6-6.5c.1-.2-.1-.4-.3-.4h-5.8c-.2,0-.5.2-.5.4l-1.4,6.5h-3.2c-.2,0-.5.2-.5.4l-.9,4c-.1.2.1.4.3.4h3.1l-3.5,15c-1.5,6.2,2,8.4,6.4,8.4,1.5,0,3.2-.4,4.6-.8.3-.1.5-.3.5-.5l.8-3.6ZM128.75,299c.2,0,.5-.2.5-.4l3-13.6,3.2-13.4c.1-.2-.1-.4-.3-.4h-5.7c-.2,0-.5.2-.5.4l-.9,4.2c-1.5-3.4-4.5-5.1-8.7-5.1-7.5,0-11.9,6-13.4,12.5-2.3,9.6,1.9,16.3,9.4,16.3,3.3,0,6-1.3,8.2-3.5l-.7,2.6c-.1.2.1.4.3.4h5.6ZM112.45,283.9c1.2-5.2,3.8-8.4,7.7-8.6h.9c4.4.2,6.4,4.1,4.8,11.1-1.4,5.7-4.3,8.6-8.2,8.5-4.8.1-6.8-4.1-5.2-11ZM99.25,299c.2,0,.5-.2.5-.4l4.1-18.6,4.4-18.4c.1-.2-.1-.4-.3-.4h-5.6c-.2,0-.5.2-.5.4l-4,18.4-4.5,18.6c-.1.2.1.4.3.4h5.6ZM87.75,281.9h-14c1.3-4.1,4.1-6.9,8.2-6.9,4.3.1,6.5,3.3,5.8,6.9ZM86.85,289.5c-.3,0-.5.2-.5.4-1.1,3.5-3.7,5.1-7.5,5.1-4.2,0-6-2.7-6-7.3,0-.5,0-1,.1-1.5h20.4c.2,0,.5-.2.5-.4,2.1-9.5-2.7-15.4-11.3-15.4-11.2,0-16.1,9.2-16.1,17.3,0,6.8,4,11.9,12.1,11.9s12.5-4.4,14-9.7c.1-.2-.1-.4-.3-.4h-5.4ZM52.15,299c.3,0,.5-.2.5-.4l3.1-13.3c1.7-5.7,6.7-9.2,11.4-9.2.4,0,.9,0,1.2.1.3,0,.5-.1.5-.4l1-4.2c.1-.2-.1-.5-.3-.5-.4-.1-.9-.2-1.5-.2-3.8,0-7.6,1.8-10.4,5.2l1.2-4.5c.1-.2-.1-.4-.3-.4h-5.6c-.2,0-.5.2-.5.4l-3,13.4-3.2,13.6c-.1.2.1.4.3.4h5.6Z"/>
  <path class="cls-3" d="M36.95,299c.2,0,.4-.2.4-.4l-.2-13.7.2-13.3c0-.2-.2-.4-.4-.4h-5.8c-.2,0-.4.2-.4.4l.1,13.3-.1,13.7c0,.2.2.4.4.4h5.8ZM36.85,268.3c.2,0,.4-.2.4-.4v-5.6c0-.2-.2-.4-.4-.4h-5.7c-.2,0-.4.2-.4.4v5.6c0,.2.2.4.4.4h5.7ZM28.25,285c0-8.1-4.1-14.4-11.8-14.4-3.7,0-6.6,1.6-8.5,4.3l.2-3.4c0-.2-.2-.4-.4-.4H1.95c-.2,0-.4.2-.4.4l.2,15.7-.2,20.5c0,.2.2.4.4.4h5.8c.2,0,.4-.2.4-.4l-.1-12.1c1.9,2.6,4.7,4,8.3,4,7.5,0,11.9-6.5,11.9-14.6ZM7.75,284.9c.1-6.3,2.6-9.5,7-9.5s6.9,3.7,6.9,10.1c0,6-2.3,9.5-7.1,9.5-4.3-.1-6.8-3.7-6.8-10.1Z"/>
</svg>