<svg width="213" height="81" viewBox="0 0 213 81" fill="none" xmlns="http://www.w3.org/2000/svg">
<mask id="path-1-inside-1_90_14889" fill="white">
<path d="M0 0H212.625V80.9999H0V0Z"/>
</mask>
<path d="M212.625 79.9874H0V82.0124H212.625V79.9874Z" fill="#E6E9F5" mask="url(#path-1-inside-1_90_14889)"/>
<path fill-rule="evenodd" clip-rule="evenodd" d="M107.946 31.7545C107.003 30.9586 105.624 30.9586 104.681 31.7545L103.822 32.4793C103.422 32.8176 102.926 33.023 102.403 33.0672L101.283 33.1619C100.054 33.2659 99.0782 34.2413 98.9743 35.4708L98.8796 36.5906C98.8354 37.1132 98.6299 37.6092 98.2916 38.01L97.5668 38.8687C96.7709 39.8117 96.7709 41.1911 97.5668 42.1341L98.2916 42.9928C98.6299 43.3936 98.8354 43.8896 98.8796 44.4122L98.9743 45.532C99.0782 46.7615 100.054 47.737 101.283 47.8409L102.403 47.9355C102.926 47.9798 103.422 48.1852 103.822 48.5236L104.681 49.2484C105.624 50.0442 107.003 50.0442 107.946 49.2484L108.805 48.5236C109.206 48.1852 109.702 47.9798 110.225 47.9355L111.344 47.8409C112.574 47.737 113.549 46.7615 113.653 45.532L113.748 44.4122C113.792 43.8896 113.998 43.3936 114.336 42.9928L115.061 42.1341C115.857 41.1911 115.857 39.8117 115.061 38.8687L114.336 38.01C113.998 37.6092 113.792 37.1132 113.748 36.5906L113.653 35.4708C113.549 34.2413 112.574 33.2659 111.344 33.1619L110.225 33.0672C109.702 33.023 109.206 32.8176 108.805 32.4793L107.946 31.7545ZM110.917 38.7756C111.361 38.3308 111.361 37.6096 110.917 37.1648C110.472 36.7199 109.751 36.7199 109.306 37.1648L105.049 41.4218L103.323 39.696C102.878 39.2512 102.157 39.2512 101.712 39.696C101.267 40.1408 101.267 40.8621 101.712 41.3069L104.243 43.8381C104.688 44.283 105.409 44.283 105.854 43.8381L110.917 38.7756Z" fill="#F0C419"/>
</svg>
