<svg width="213" height="81" viewBox="0 0 213 81" fill="none" xmlns="http://www.w3.org/2000/svg">
<mask id="path-1-inside-1_90_14865" fill="white">
<path d="M0 0H212.625V80.9999H0V0Z"/>
</mask>
<path d="M212.625 79.9874H0V82.0124H212.625V79.9874Z" fill="#E6E9F5" mask="url(#path-1-inside-1_90_14865)"/>
<path fill-rule="evenodd" clip-rule="evenodd" d="M107.939 31.7545C106.996 30.9586 105.616 30.9586 104.673 31.7545L103.814 32.4793C103.414 32.8176 102.918 33.023 102.395 33.0672L101.275 33.1619C100.046 33.2659 99.0704 34.2413 98.9664 35.4708L98.8717 36.5906C98.8275 37.1132 98.6221 37.6092 98.2838 38.01L97.559 38.8687C96.7631 39.8117 96.7631 41.1911 97.559 42.1341L98.2838 42.9928C98.6221 43.3936 98.8275 43.8896 98.8717 44.4122L98.9664 45.532C99.0704 46.7615 100.046 47.737 101.275 47.8409L102.395 47.9355C102.918 47.9798 103.414 48.1852 103.814 48.5236L104.673 49.2484C105.616 50.0442 106.996 50.0442 107.939 49.2484L108.797 48.5236C109.198 48.1852 109.694 47.9798 110.217 47.9355L111.337 47.8409C112.566 47.737 113.541 46.7615 113.645 45.532L113.74 44.4122C113.784 43.8896 113.99 43.3936 114.328 42.9928L115.053 42.1341C115.849 41.1911 115.849 39.8117 115.053 38.8687L114.328 38.01C113.99 37.6092 113.784 37.1132 113.74 36.5906L113.645 35.4708C113.541 34.2413 112.566 33.2659 111.337 33.1619L110.217 33.0672C109.694 33.023 109.198 32.8176 108.797 32.4793L107.939 31.7545ZM110.909 38.7756C111.354 38.3308 111.354 37.6096 110.909 37.1648C110.464 36.7199 109.743 36.7199 109.298 37.1648L105.041 41.4218L103.315 39.696C102.87 39.2512 102.149 39.2512 101.704 39.696C101.259 40.1408 101.259 40.8621 101.704 41.3069L104.235 43.8381C104.68 44.283 105.401 44.283 105.846 43.8381L110.909 38.7756Z" fill="#122856"/>
</svg>
