<svg width="213" height="81" viewBox="0 0 213 81" fill="none" xmlns="http://www.w3.org/2000/svg">
<mask id="path-1-inside-1_90_14892" fill="white">
<path d="M0 0H212.625V80.9999H0V0Z"/>
</mask>
<path d="M212.625 79.9874H0V82.0124H212.625V79.9874Z" fill="#E6E9F5" mask="url(#path-1-inside-1_90_14892)"/>
<path fill-rule="evenodd" clip-rule="evenodd" d="M107.946 31.7525C107.003 30.9566 105.624 30.9566 104.681 31.7525L103.822 32.4773C103.422 32.8156 102.926 33.0211 102.403 33.0653L101.283 33.1599C100.054 33.2639 99.0782 34.2393 98.9743 35.4689L98.8796 36.5887C98.8354 37.1113 98.6299 37.6072 98.2916 38.008L97.5668 38.8668C96.7709 39.8097 96.7709 41.1892 97.5668 42.1321L98.2916 42.9909C98.6299 43.3916 98.8354 43.8876 98.8796 44.4102L98.9743 45.53C99.0782 46.7596 100.054 47.735 101.283 47.8389L102.403 47.9336C102.926 47.9779 103.422 48.1833 103.822 48.5216L104.681 49.2464C105.624 50.0422 107.003 50.0422 107.946 49.2464L108.805 48.5216C109.206 48.1833 109.702 47.9779 110.225 47.9336L111.344 47.8389C112.574 47.735 113.549 46.7596 113.653 45.53L113.748 44.4102C113.792 43.8876 113.998 43.3916 114.336 42.9909L115.061 42.1321C115.857 41.1892 115.857 39.8097 115.061 38.8668L114.336 38.008C113.998 37.6072 113.792 37.1113 113.748 36.5887L113.653 35.4689C113.549 34.2393 112.574 33.2639 111.344 33.1599L110.225 33.0653C109.702 33.0211 109.206 32.8156 108.805 32.4773L107.946 31.7525ZM110.917 38.7737C111.361 38.3289 111.361 37.6076 110.917 37.1628C110.472 36.718 109.751 36.718 109.306 37.1628L105.049 41.4199L103.323 39.6941C102.878 39.2492 102.157 39.2492 101.712 39.6941C101.267 40.1389 101.267 40.8601 101.712 41.3049L104.243 43.8361C104.688 44.281 105.409 44.281 105.854 43.8361L110.917 38.7737Z" fill="#F0C419"/>
</svg>
