<svg width="19" height="19" viewBox="0 0 19 19" fill="none" xmlns="http://www.w3.org/2000/svg">
<path d="M3.51025 3.52417C6.96076 0.0736647 12.5549 0.073665 16.0054 3.52417C19.4555 6.9747 19.4558 12.5689 16.0054 16.0193C12.555 19.4697 6.96079 19.4695 3.51025 16.0193C0.0597481 12.5688 0.0597488 6.97468 3.51025 3.52417Z" fill="#F5E129" stroke="#F0C419" stroke-width="0.659235"/>
<g clip-path="url(#clip0_79_6009)">
<path d="M8.70594 7.69858L12.6473 7.16596C12.6676 7.1632 12.6872 7.16448 12.705 7.16972C12.7227 7.17496 12.7383 7.18406 12.7507 7.19651C12.7632 7.20895 12.7723 7.22449 12.7775 7.24224C12.7827 7.25999 12.784 7.2796 12.7813 7.29995L12.2486 11.2413C12.2431 11.2824 12.2214 11.324 12.1885 11.3569C12.1555 11.3899 12.1139 11.4116 12.0728 11.4171C12.0317 11.4227 11.9945 11.4117 11.9694 11.3866C11.9443 11.3614 11.9333 11.3242 11.9388 11.2831L12.4209 7.71569L7.25287 12.8837C7.21991 12.9167 7.17833 12.9383 7.13726 12.9439C7.0962 12.9494 7.05902 12.9384 7.03391 12.9133C7.0088 12.8882 6.99781 12.851 7.00336 12.81C7.00891 12.7689 7.03054 12.7273 7.0635 12.6943L12.2315 7.52632L8.66407 8.00841C8.62299 8.01396 8.58579 8.00296 8.56066 7.97784C8.53554 7.95271 8.52454 7.91551 8.53009 7.87443C8.53564 7.83334 8.55729 7.79173 8.59027 7.75875C8.62325 7.72577 8.66486 7.70413 8.70594 7.69858Z" fill="white" stroke="white" stroke-width="0.598225"/>
</g>
<defs>
<clipPath id="clip0_79_6009">
<rect width="8.57005" height="11.2482" fill="white" transform="translate(8.94629 17.0623) rotate(-135)"/>
</clipPath>
</defs>
</svg>
