<svg width="11" height="11" viewBox="0 0 11 11" fill="none" xmlns="http://www.w3.org/2000/svg">
<path d="M5.48562 4.02181C5.81714 4.02181 6.13508 4.1535 6.36949 4.38792C6.60391 4.62234 6.7356 4.94028 6.7356 5.27179C6.7356 5.60331 6.60391 5.92125 6.36949 6.15566C6.13508 6.39008 5.81714 6.52178 5.48562 6.52178C5.15411 6.52178 4.83617 6.39008 4.60175 6.15566C4.36733 5.92125 4.23564 5.60331 4.23564 5.27179C4.23564 4.94028 4.36733 4.62234 4.60175 4.38792C4.83617 4.1535 5.15411 4.02181 5.48562 4.02181ZM5.48562 2.14683C7.56893 2.14683 9.34807 3.44265 10.0689 5.27179C9.34807 7.10093 7.56893 8.39675 5.48562 8.39675C3.40232 8.39675 1.62317 7.10093 0.90235 5.27179C1.62317 3.44265 3.40232 2.14683 5.48562 2.14683ZM1.81067 5.27179C2.14744 5.95941 2.67037 6.53875 3.32002 6.94396C3.96966 7.34916 4.71996 7.56398 5.48562 7.56398C6.25128 7.56398 7.00158 7.34916 7.65123 6.94396C8.30087 6.53875 8.8238 5.95941 9.16057 5.27179C8.8238 4.58417 8.30087 4.00483 7.65123 3.59962C7.00158 3.19442 6.25128 2.97961 5.48562 2.97961C4.71996 2.97961 3.96966 3.19442 3.32002 3.59962C2.67037 4.00483 2.14744 4.58417 1.81067 5.27179Z" fill="#374B5C"/>
</svg>
