<svg width="9" height="9" viewBox="0 0 9 9" fill="none" xmlns="http://www.w3.org/2000/svg">
<path d="M1.489 3.79681H7.39532M2.80152 1.49991V2.15617M6.08281 1.49991V2.15617M2.53902 7.40623H6.34531C6.71285 7.40623 6.89662 7.40623 7.037 7.3347C7.16048 7.27178 7.26088 7.17139 7.32379 7.0479C7.39532 6.90752 7.39532 6.72375 7.39532 6.35621V3.20618C7.39532 2.83864 7.39532 2.65487 7.32379 2.51449C7.26088 2.39101 7.16048 2.29061 7.037 2.22769C6.89662 2.15617 6.71285 2.15617 6.34531 2.15617H2.53902C2.17148 2.15617 1.98771 2.15617 1.84733 2.22769C1.72384 2.29061 1.62345 2.39101 1.56053 2.51449C1.489 2.65487 1.489 2.83864 1.489 3.20618V6.35621C1.489 6.72375 1.489 6.90752 1.56053 7.0479C1.62345 7.17139 1.72384 7.27178 1.84733 7.3347C1.98771 7.40623 2.17148 7.40623 2.53902 7.40623Z" stroke="#374B5C" stroke-width="0.470175" stroke-linecap="round" stroke-linejoin="round"/>
</svg>
