<svg width="7" height="7" viewBox="0 0 7 7" fill="none" xmlns="http://www.w3.org/2000/svg">
<path d="M2.19787 0.914377L6.52294 0.329908C6.54527 0.326878 6.56679 0.328279 6.58627 0.334029C6.60574 0.339781 6.6228 0.349769 6.63645 0.363424C6.65011 0.377079 6.6601 0.394132 6.66585 0.413609C6.6716 0.433086 6.673 0.454605 6.66997 0.476934L6.0855 4.802C6.07941 4.84709 6.05565 4.89275 6.01946 4.92894C5.98327 4.96513 5.93761 4.98888 5.89253 4.99498C5.84744 5.00107 5.80662 4.989 5.77905 4.96143C5.75148 4.93386 5.73941 4.89304 5.7455 4.84795L6.27453 0.933161L0.603327 6.60436C0.567157 6.64053 0.521523 6.66427 0.476461 6.67036C0.431399 6.67645 0.390602 6.66439 0.363045 6.63683C0.335487 6.60927 0.323427 6.56848 0.329516 6.52342C0.335606 6.47835 0.359346 6.43272 0.395515 6.39655L6.06671 0.72535L2.15193 1.25438C2.10684 1.26047 2.06602 1.2484 2.03845 1.22083C2.01087 1.19326 1.99881 1.15244 2.0049 1.10735C2.01099 1.06226 2.03475 1.0166 2.07093 0.980413C2.10712 0.944224 2.15278 0.92047 2.19787 0.914377Z" fill="white" stroke="white" stroke-width="0.577778"/>
</svg>
