<svg width="4" height="4" viewBox="0 0 4 4" fill="none" xmlns="http://www.w3.org/2000/svg">
<path d="M1.25624 0.522603L3.72764 0.188631C3.74039 0.1869 3.75269 0.1877 3.76382 0.190986C3.77495 0.194273 3.78469 0.19998 3.7925 0.207783C3.8003 0.215585 3.80601 0.22533 3.80929 0.236459C3.81258 0.247588 3.81338 0.259884 3.81165 0.272644L3.47768 2.74403C3.47419 2.7698 3.46062 2.79589 3.43994 2.81657C3.41926 2.83725 3.39317 2.85082 3.36741 2.8543C3.34165 2.85778 3.31832 2.85089 3.30257 2.83513C3.28681 2.81938 3.27992 2.79605 3.2834 2.77029L3.58569 0.533337L0.345105 3.77392C0.324438 3.79459 0.298362 3.80815 0.272613 3.81163C0.246864 3.81511 0.223552 3.80822 0.207806 3.79247C0.192059 3.77673 0.185168 3.75342 0.188647 3.72767C0.192127 3.70192 0.205692 3.67584 0.22636 3.65517L3.46694 0.414591L1.22999 0.716882C1.20423 0.720364 1.1809 0.713468 1.16515 0.697713C1.14939 0.681958 1.1425 0.658633 1.14598 0.63287C1.14946 0.607107 1.16303 0.581016 1.18371 0.560337C1.20439 0.539658 1.23048 0.526085 1.25624 0.522603Z" fill="white" stroke="white" stroke-width="0.283122"/>
</svg>
