<svg width="19" height="19" viewBox="0 0 19 19" fill="none" xmlns="http://www.w3.org/2000/svg">
<path fill-rule="evenodd" clip-rule="evenodd" d="M11.2509 0.757912C10.3097 -0.0364922 8.93285 -0.0364909 7.99166 0.757912L7.13451 1.48139C6.73447 1.81903 6.23944 2.02409 5.71782 2.06821L4.60015 2.16272C3.3729 2.26651 2.39932 3.24009 2.29554 4.46733L2.20102 5.58501C2.15691 6.10663 1.95184 6.60166 1.6142 7.00171L0.890724 7.85885C0.0963203 8.80003 0.0963216 10.1769 0.890724 11.1181L1.6142 11.9752C1.95184 12.3752 2.15691 12.8703 2.20102 13.3919L2.29554 14.5096C2.39932 15.7369 3.3729 16.7105 4.60015 16.8142L5.71782 16.9087C6.23944 16.9529 6.73447 17.1579 7.13452 17.4956L7.99166 18.219C8.93285 19.0134 10.3097 19.0134 11.2509 18.219L12.108 17.4956C12.508 17.1579 13.0031 16.9529 13.5247 16.9087L14.6424 16.8142C15.8697 16.7105 16.8433 15.7369 16.947 14.5096L17.0415 13.3919C17.0857 12.8703 17.2907 12.3752 17.6284 11.9752L18.3518 11.1181C19.1462 10.1769 19.1462 8.80003 18.3518 7.85885L17.6284 7.00169C17.2907 6.60166 17.0857 6.10663 17.0415 5.58501L16.947 4.46733C16.8433 3.24009 15.8697 2.26651 14.6424 2.16272L13.5247 2.06821C13.0031 2.02409 12.508 1.81903 12.108 1.48139L11.2509 0.757912ZM14.2155 7.76593C14.6595 7.32194 14.6595 6.60208 14.2155 6.15808C13.7716 5.71407 13.0516 5.71407 12.6076 6.15808L8.35856 10.4072L6.63599 8.68458C6.19199 8.24058 5.47213 8.24058 5.02814 8.68458C4.58413 9.12858 4.58413 9.84844 5.02814 10.2924L7.55464 12.8189C7.99863 13.2629 8.7185 13.2629 9.16249 12.8189L14.2155 7.76593Z" fill="#122856"/>
</svg>
