<svg width="193" height="227" viewBox="0 0 193 227" fill="none" xmlns="http://www.w3.org/2000/svg">
<g filter="url(#filter0_d_90_14771)">
<path d="M49.0869 73.4644V148.706C49.0869 158.641 52.5922 167.187 59.6465 174.242C66.7003 181.295 75.1867 184.8 85.1826 184.8C95.1828 184.8 103.488 181.293 110.539 174.242L110.538 174.241C117.647 167.192 121.277 158.708 121.277 148.706V73.4644H155.076V148.706C155.076 168.088 148.188 184.597 134.452 198.273L134.451 198.274C121.076 211.649 104.942 218.417 85.9482 218.594V218.539H85.1826C66.1004 218.539 49.8051 211.921 36.2559 198.726L35.6123 198.093C22.0592 184.54 15.2891 168.092 15.2891 148.706V73.4644H49.0869ZM190.026 3.76514V33.7778H81.4229V3.76514H190.026Z" stroke="url(#paint0_linear_90_14771)" stroke-width="1.53146" shape-rendering="crispEdges"/>
</g>
<defs>
<filter id="filter0_d_90_14771" x="0.740304" y="0.702323" width="191.583" height="231.679" filterUnits="userSpaceOnUse" color-interpolation-filters="sRGB">
<feFlood flood-opacity="0" result="BackgroundImageFix"/>
<feColorMatrix in="SourceAlpha" type="matrix" values="0 0 0 0 0 0 0 0 0 0 0 0 0 0 0 0 0 0 127 0" result="hardAlpha"/>
<feOffset dx="-6.12584" dy="5.36011"/>
<feGaussianBlur stdDeviation="3.82865"/>
<feComposite in2="hardAlpha" operator="out"/>
<feColorMatrix type="matrix" values="0 0 0 0 0 0 0 0 0 0 0 0 0 0 0 0 0 0 0.15 0"/>
<feBlend mode="normal" in2="BackgroundImageFix" result="effect1_dropShadow_90_14771"/>
<feBlend mode="normal" in="SourceGraphic" in2="effect1_dropShadow_90_14771" result="shape"/>
</filter>
<linearGradient id="paint0_linear_90_14771" x1="190.641" y1="2.99953" x2="29.0723" y2="209.364" gradientUnits="userSpaceOnUse">
<stop stop-color="#2972F5" stop-opacity="0.3"/>
<stop offset="0.808027" stop-color="white" stop-opacity="0"/>
</linearGradient>
</defs>
</svg>
