<svg width="20" height="19" viewBox="0 0 20 19" fill="none" xmlns="http://www.w3.org/2000/svg">
<path fill-rule="evenodd" clip-rule="evenodd" d="M11.4848 0.909767C10.5436 0.115363 9.16673 0.115365 8.22555 0.909767L7.36839 1.63324C6.96836 1.97089 6.47333 2.17595 5.95171 2.22006L4.83403 2.31458C3.60679 2.41837 2.63321 3.39194 2.52942 4.61919L2.43491 5.73686C2.39079 6.25849 2.18573 6.75352 1.84809 7.15356L1.12461 8.0107C0.330207 8.95189 0.330208 10.3287 1.12461 11.2699L1.84809 12.1271C2.18573 12.5271 2.39079 13.0222 2.43491 13.5438L2.52942 14.6615C2.63321 15.8887 3.60679 16.8623 4.83403 16.966L5.95171 17.0605C6.47333 17.1047 6.96836 17.3098 7.36841 17.6474L8.22555 18.3709C9.16673 19.1652 10.5436 19.1652 11.4848 18.3709L12.3419 17.6474C12.7419 17.3098 13.237 17.1047 13.7586 17.0605L14.8763 16.966C16.1036 16.8623 17.0772 15.8887 17.1809 14.6615L17.2754 13.5438C17.3196 13.0222 17.5246 12.5271 17.8623 12.1271L18.5857 11.2699C19.3801 10.3287 19.3801 8.95189 18.5857 8.0107L17.8623 7.15355C17.5246 6.75352 17.3196 6.25849 17.2754 5.73686L17.1809 4.61919C17.0772 3.39194 16.1036 2.41837 14.8763 2.31458L13.7586 2.22006C13.237 2.17595 12.7419 1.97089 12.3419 1.63324L11.4848 0.909767ZM14.4493 7.91779C14.8934 7.4738 14.8934 6.75393 14.4493 6.30994C14.0054 5.86593 13.2855 5.86593 12.8415 6.30994L8.59245 10.559L6.86988 8.83644C6.42588 8.39243 5.70602 8.39243 5.26202 8.83644C4.81802 9.28043 4.81802 10.0003 5.26202 10.4443L7.78852 12.9707C8.23252 13.4148 8.95238 13.4148 9.39638 12.9707L14.4493 7.91779Z" fill="#F0C419"/>
</svg>
